<?xml version="1.0" encoding="UTF-8"?>
<!-- Generator: visioncortex VTracer 0.6.2 -->
<svg version="1.1" xmlns="http://www.w3.org/2000/svg" width="1280" height="215">
<path d="M0 0 C1.99954746 -0.04254356 4.00041636 -0.04080783 6 0 C6.33 0.33 6.66 0.66 7 1 C8.43434586 1.15710888 9.87297244 1.27604721 11.3125 1.375 C15.03221002 1.73630941 17.27163748 2.27163748 20 5 C19.34 6.65 18.68 8.3 18 10 C16.52093108 10.02689216 15.04172517 10.04634621 13.5625 10.0625 C12.32693359 10.07990234 12.32693359 10.07990234 11.06640625 10.09765625 C9 10 9 10 8 9 C6.65252916 8.76924918 5.29622435 8.58846937 3.9375 8.4375 C2.638125 8.293125 1.33875 8.14875 0 8 C-1.125 2.25 -1.125 2.25 0 0 Z " fill="#FCFDFF" transform="translate(836,134)"/>
<path d="M0 0 C1.85625 -0.00386719 1.85625 -0.00386719 3.75 -0.0078125 C7 0.125 7 0.125 10 1.125 C10 3.435 10 5.745 10 8.125 C4.06 8.125 -1.88 8.125 -8 8.125 C-9.15392455 5.8171509 -9.53437166 3.65269669 -10 1.125 C-6.49904689 -0.04198437 -3.6877768 -0.00768287 0 0 Z " fill="#F7F8FA" transform="translate(948,148.875)"/>
<path d="M0 0 C5.12552327 -0.37503829 8.37794084 0.85404396 13 3 C14.99263591 3.68836513 16.99041337 4.36281399 19 5 C18.67 6.98 18.34 8.96 18 11 C14.83291337 12.04865757 13.18400714 11.98358535 10.125 10.6875 C9.43664062 10.40648437 8.74828125 10.12546875 8.0390625 9.8359375 C7.36617187 9.56007813 6.69328125 9.28421875 6 9 C4.00359361 8.32264783 2.00495586 7.65161065 0 7 C-1.125 2.25 -1.125 2.25 0 0 Z " fill="#FCFDFF" transform="translate(540,32)"/>
<path d="M0 0 C1.13050781 -0.01417969 2.26101563 -0.02835938 3.42578125 -0.04296875 C6.61954843 0.18269863 8.8151429 0.82407346 11.6875 2.1875 C11.6875 4.1675 11.6875 6.1475 11.6875 8.1875 C8.91608283 8.26839542 6.14702181 8.32794062 3.375 8.375 C2.58931641 8.40013672 1.80363281 8.42527344 0.99414062 8.45117188 C0.23681641 8.46083984 -0.52050781 8.47050781 -1.30078125 8.48046875 C-1.99727783 8.4961792 -2.69377441 8.51188965 -3.41137695 8.52807617 C-5.94828428 8.0736026 -6.81516015 7.26305825 -8.3125 5.1875 C-8.3125 3.8675 -8.3125 2.5475 -8.3125 1.1875 C-5.50752177 -0.21498912 -3.12748635 0.01770944 0 0 Z " fill="#F0F1F3" transform="translate(920.3125,146.8125)"/>
<path d="M0 0 C1.134375 0.020625 2.26875 0.04125 3.4375 0.0625 C4.53408936 3.35226808 4.23703138 4.77553767 3.4375 8.0625 C1.54257994 8.40098652 -0.35348466 8.73306911 -2.25 9.0625 C-3.30574219 9.248125 -4.36148437 9.43375 -5.44921875 9.625 C-8.21154062 10.01318074 -10.77992043 10.14509976 -13.5625 10.0625 C-15.5625 3.1875 -15.5625 3.1875 -15.5625 2.0625 C-14.78003906 2.00191406 -13.99757813 1.94132813 -13.19140625 1.87890625 C-12.17949219 1.79511719 -11.16757813 1.71132812 -10.125 1.625 C-9.11566406 1.54378906 -8.10632812 1.46257812 -7.06640625 1.37890625 C-3.58548689 0.93903968 -3.91624073 0.06870598 0 0 Z " fill="#F8F9FB" transform="translate(1058.5625,144.9375)"/>
<path d="M0 0 C6.268989 0.36387167 12.49025296 2.00557226 18 5 C18.33 5.99 18.66 6.98 19 8 C18.01 8 17.02 8 16 8 C16 9.32 16 10.64 16 12 C3.33029613 8.92482916 3.33029613 8.92482916 -2 7 C-2.125 4.625 -2.125 4.625 -2 2 C-1.34 1.34 -0.68 0.68 0 0 Z " fill="#F8F9FB" transform="translate(491,17)"/>
<path d="M0 0 C0.33 1.65 0.66 3.3 1 5 C-4.59675416 9.92514366 -10.89909367 10.24915461 -18 10 C-18.66 8.68 -19.32 7.36 -20 6 C-13.88825463 0.44386785 -7.92978246 -0.27823798 0 0 Z " fill="#FCFDFF" transform="translate(1114,134)"/>
<path d="M0 0 C1.0625 1.875 1.0625 1.875 2 4 C1.67 4.66 1.34 5.32 1 6 C1.99 6.33 2.98 6.66 4 7 C3.34 7 2.68 7 2 7 C1.34 8.65 0.68 10.3 0 12 C-0.66 12 -1.32 12 -2 12 C-2.268125 12.598125 -2.53625 13.19625 -2.8125 13.8125 C-4.04111253 16.07573361 -4.89031346 17.51540577 -7 19 C-9.6875 18.6875 -9.6875 18.6875 -12 18 C-12 15.69 -12 13.38 -12 11 C-11.34 11 -10.68 11 -10 11 C-10 10.34 -10 9.68 -10 9 C-7.625 6.375 -7.625 6.375 -5 4 C-4.34 4 -3.68 4 -3 4 C-3 3.34 -3 2.68 -3 2 C-2.01 2 -1.02 2 0 2 C0 1.34 0 0.68 0 0 Z " fill="#F5F6F8" transform="translate(1261,30)"/>
<path d="M0 0 C6.6 0 13.2 0 20 0 C20 1.98 20 3.96 20 6 C19 7 19 7 17.14233398 7.11352539 C16.35157471 7.10828857 15.56081543 7.10305176 14.74609375 7.09765625 C13.89208984 7.09443359 13.03808594 7.09121094 12.15820312 7.08789062 C11.26037109 7.07951172 10.36253906 7.07113281 9.4375 7.0625 C8.53580078 7.05798828 7.63410156 7.05347656 6.70507812 7.04882812 C4.46998686 7.03700225 2.23502563 7.0205222 0 7 C0 4.69 0 2.38 0 0 Z " fill="#FCFDFF" transform="translate(309,0)"/>
<path d="M0 0 C3.40155543 1.25889341 6.71004338 2.6692748 9.90234375 4.3984375 C9.57234375 6.0484375 9.24234375 7.6984375 8.90234375 9.3984375 C2.09591957 9.83059142 -3.3115321 9.28482561 -9.09765625 5.3984375 C-10.66015625 2.6484375 -10.66015625 2.6484375 -11.09765625 0.3984375 C-7.54796949 -1.37640588 -3.77117722 -1.08149216 0 0 Z " fill="#F6F7F9" transform="translate(744.09765625,108.6015625)"/>
<path d="M0 0 C4.75 -0.125 4.75 -0.125 7 1 C8.87056791 1.2275015 10.74685958 1.40962811 12.625 1.5625 C13.62789062 1.64628906 14.63078125 1.73007813 15.6640625 1.81640625 C16.43492187 1.87699219 17.20578125 1.93757812 18 2 C18.04241723 4.33294775 18.04092937 6.66702567 18 9 C17.67 9.33 17.34 9.66 17 10 C10.88860911 9.84513045 4.80367855 8.89938571 -1 7 C-2 4 -2 4 -1.0625 1.8125 C-0.5365625 0.9153125 -0.5365625 0.9153125 0 0 Z " fill="#F6F7F9" transform="translate(888,143)"/>
<path d="M0 0 C1.58206057 0.00667536 3.16410534 0.0186375 4.74609375 0.03515625 C5.55240234 0.03966797 6.35871094 0.04417969 7.18945312 0.04882812 C9.18753131 0.06065107 11.18557158 0.07858711 13.18359375 0.09765625 C13.73707015 2.17319273 14.18359375 3.94131589 14.18359375 6.09765625 C12.86359375 5.76765625 11.54359375 5.43765625 10.18359375 5.09765625 C9.85359375 6.08765625 9.52359375 7.07765625 9.18359375 8.09765625 C7.03782738 8.12451563 4.8919673 8.14398713 2.74609375 8.16015625 C1.55113281 8.17175781 0.35617187 8.18335938 -0.875 8.1953125 C-3.81640625 8.09765625 -3.81640625 8.09765625 -4.81640625 7.09765625 C-4.94140625 4.09765625 -4.94140625 4.09765625 -4.81640625 1.09765625 C-3.81640625 0.09765625 -3.81640625 0.09765625 0 0 Z " fill="#FCFDFF" transform="translate(1022.81640625,148.90234375)"/>
<path d="M0 0 C6.43681228 0.51085812 11.95942424 1.72942897 18 4 C18.04254356 5.99954746 18.04080783 8.00041636 18 10 C17 11 17 11 14.4375 11.0625 C13.633125 11.041875 12.82875 11.02125 12 11 C12 10.01 12 9.02 12 8 C10.80375 8.226875 9.6075 8.45375 8.375 8.6875 C4.1290804 9.24657126 1.66446727 8.29029204 -2 6 C-2 3 -2 3 0 0 Z " fill="#FAFBFD" transform="translate(786,122)"/>
<path d="M0 0 C1.99954746 -0.04254356 4.00041636 -0.04080783 6 0 C7 1 7 1 7.0625 4.0625 C7.041875 5.031875 7.02125 6.00125 7 7 C5.35 7.33 3.7 7.66 2 8 C2 7.34 2 6.68 2 6 C1.01 6 0.02 6 -1 6 C-1 7.32 -1 8.64 -1 10 C-5.12168689 11.62950412 -7.70700357 12.26264601 -12 11 C-12 9.02 -12 7.04 -12 5 C-4.71428571 1.57142857 -4.71428571 1.57142857 0 2 C0 1.34 0 0.68 0 0 Z " fill="#FAFBFD" transform="translate(220,17)"/>
<path d="M0 0 C0.680625 0.23074219 1.36125 0.46148437 2.0625 0.69921875 C5.02469551 1.73540177 7.13031766 2.50531766 9.375 4.75 C9.1875 6.75 9.1875 6.75 8.375 8.75 C7.385 9.41 6.395 10.07 5.375 10.75 C5.375 9.76 5.375 8.77 5.375 7.75 C4.385 7.9975 3.395 8.245 2.375 8.5 C-1.70552522 9.08174494 -4.40578106 7.97233388 -7.95703125 6.0078125 C-10.25783697 4.27277868 -11.0077424 2.52765918 -11.625 -0.25 C-7.62909023 -3.24180937 -4.26261377 -1.55969201 0 0 Z " fill="#F6F7F9" transform="translate(670.625,83.25)"/>
<path d="M0 0 C2.95392081 1.00701846 5.38105086 2.34755925 8.0390625 3.9609375 C9.88568129 5.07691225 9.88568129 5.07691225 12.625 6 C13.32625 6.309375 14.0275 6.61875 14.75 6.9375 C15.08 7.9275 15.41 8.9175 15.75 9.9375 C14.43 11.2575 13.11 12.5775 11.75 13.9375 C8.12 12.2875 4.49 10.6375 0.75 8.9375 C0.75 7.9475 0.75 6.9575 0.75 5.9375 C-0.9 6.2675 -2.55 6.5975 -4.25 6.9375 C-4.9375 5.125 -4.9375 5.125 -5.25 2.9375 C-3.71386953 0.46262314 -2.93269101 -0.08146364 0 0 Z " fill="#EEEFF1" transform="translate(592.25,50.0625)"/>
<path d="M0 0 C2.9375 0.75 2.9375 0.75 6 2 C6.875 4.125 6.875 4.125 7 6 C5.35 6.33 3.7 6.66 2 7 C2.20625 7.78375 2.4125 8.5675 2.625 9.375 C2.74875 10.24125 2.8725 11.1075 3 12 C2.34 12.66 1.68 13.32 1 14 C0.01 14 -0.98 14 -2 14 C-1.67 15.32 -1.34 16.64 -1 18 C-2.65 18.66 -4.3 19.32 -6 20 C-6 19.34 -6 18.68 -6 18 C-6.99 17.67 -7.98 17.34 -9 17 C-7.55049545 13.2089881 -5.84827434 9.6125362 -4 6 C-3.34 6 -2.68 6 -2 6 C-1.34 4.02 -0.68 2.04 0 0 Z " fill="#F6F7F9" transform="translate(1273,9)"/>
<path d="M0 0 C2.54055845 0.25552438 5.03852505 0.56707159 7.5625 0.9375 C8.27341797 1.03740234 8.98433594 1.13730469 9.71679688 1.24023438 C11.47856957 1.48853791 13.23938152 1.74364039 15 2 C15 2.66 15 3.32 15 4 C15.99 4.33 16.98 4.66 18 5 C17.67 6.65 17.34 8.3 17 10 C10.19796625 10.37634203 5.24309927 9.77471079 -1 7 C-1.04254356 5.00045254 -1.04080783 2.99958364 -1 1 C-0.67 0.67 -0.34 0.34 0 0 Z " fill="#FAFBFD" transform="translate(440,6)"/>
<path d="M0 0 C1.2065625 0.0309375 1.2065625 0.0309375 2.4375 0.0625 C2.4375 1.3825 2.4375 2.7025 2.4375 4.0625 C3.0975 4.0625 3.7575 4.0625 4.4375 4.0625 C3.875 5.9375 3.875 5.9375 2.4375 8.0625 C-3.1723539 10.39993912 -8.55391528 10.28011474 -14.5625 10.0625 C-15.25 8.25 -15.25 8.25 -15.5625 6.0625 C-14.04631748 3.84495414 -12.89746267 3.16710238 -10.3359375 2.3671875 C-9.54445312 2.22539062 -8.75296875 2.08359375 -7.9375 1.9375 C-4.97186492 1.3904411 -2.84279512 0.06933647 0 0 Z " fill="#FCFDFF" transform="translate(247.5625,9.9375)"/>
<path d="M0 0 C1.58554687 0.47373047 1.58554687 0.47373047 3.203125 0.95703125 C5.75 2.1875 5.75 2.1875 6.69921875 4.21484375 C6.75 6.1875 6.75 6.1875 5.3125 7.9375 C4.5390625 8.55625 4.5390625 8.55625 3.75 9.1875 C3.75 8.1975 3.75 7.2075 3.75 6.1875 C3.20601562 6.54328125 2.66203125 6.8990625 2.1015625 7.265625 C-1.03719945 8.49610311 -2.67494869 7.88630228 -5.875 6.9375 C-7.31746094 6.52757813 -7.31746094 6.52757813 -8.7890625 6.109375 C-11.25 5.1875 -11.25 5.1875 -13.25 3.1875 C-13.375 0.5625 -13.375 0.5625 -13.25 -1.8125 C-9.21958563 -3.82770718 -4.096338 -1.26623256 0 0 Z " fill="#F4F5F7" transform="translate(722.25,101.8125)"/>
<path d="M0 0 C0.8353125 0.556875 0.8353125 0.556875 1.6875 1.125 C1.3575 2.775 1.0275 4.425 0.6875 6.125 C-0.6325 5.795 -1.9525 5.465 -3.3125 5.125 C-2.9825 6.775 -2.6525 8.425 -2.3125 10.125 C-2.9725 10.125 -3.6325 10.125 -4.3125 10.125 C-4.3125 10.785 -4.3125 11.445 -4.3125 12.125 C-4.9725 12.125 -5.6325 12.125 -6.3125 12.125 C-6.3125 12.785 -6.3125 13.445 -6.3125 14.125 C-6.9725 14.125 -7.6325 14.125 -8.3125 14.125 C-8.6425 15.115 -8.9725 16.105 -9.3125 17.125 C-9.6425 16.135 -9.9725 15.145 -10.3125 14.125 C-11.6325 14.455 -12.9525 14.785 -14.3125 15.125 C-14.5625 12.875 -14.5625 12.875 -14.3125 10.125 C-12.375 8 -12.375 8 -10.3125 6.125 C-9.9825 5.135 -9.6525 4.145 -9.3125 3.125 C-8.6525 3.125 -7.9925 3.125 -7.3125 3.125 C-7.3125 2.465 -7.3125 1.805 -7.3125 1.125 C-2.88173077 -1.09038462 -2.88173077 -1.09038462 0 0 Z " fill="#F6F7F9" transform="translate(72.3125,111.875)"/>
<path d="M0 0 C1.65 0.33 3.3 0.66 5 1 C5 2.98 5 4.96 5 7 C4.34 7 3.68 7 3 7 C2.731875 7.639375 2.46375 8.27875 2.1875 8.9375 C1 11 1 11 -2 12 C-2 12.66 -2 13.32 -2 14 C-2.66 14 -3.32 14 -4 14 C-4 14.66 -4 15.32 -4 16 C-5.99954746 16.04254356 -8.00041636 16.04080783 -10 16 C-11 15 -11 15 -11.375 12.125 C-11.25125 11.09375 -11.1275 10.0625 -11 9 C-8.75 7.375 -8.75 7.375 -6 6 C-5.278125 5.278125 -4.55625 4.55625 -3.8125 3.8125 C-3.214375 3.214375 -2.61625 2.61625 -2 2 C-1.34 2 -0.68 2 0 2 C0 1.34 0 0.68 0 0 Z " fill="#F4F5F7" transform="translate(87,93)"/>
<path d="M0 0 C1.8125 1.375 1.8125 1.375 2.5625 3.5 C2.68625 4.428125 2.68625 4.428125 2.8125 5.375 C1 6.9375 1 6.9375 -1.1875 8.375 C-2.1775 8.045 -3.1675 7.715 -4.1875 7.375 C-3.8575 8.365 -3.5275 9.355 -3.1875 10.375 C-4.5075 10.045 -5.8275 9.715 -7.1875 9.375 C-6.98125 9.99375 -6.775 10.6125 -6.5625 11.25 C-6.43875 11.95125 -6.315 12.6525 -6.1875 13.375 C-8.1875 15.375 -8.1875 15.375 -11.3125 15.5 C-12.735625 15.438125 -12.735625 15.438125 -14.1875 15.375 C-14.875 13.0625 -14.875 13.0625 -15.1875 10.375 C-13.875 8.5625 -13.875 8.5625 -12.1875 7.375 C-11.5275 7.375 -10.8675 7.375 -10.1875 7.375 C-10.1875 6.715 -10.1875 6.055 -10.1875 5.375 C-9.5275 5.375 -8.8675 5.375 -8.1875 5.375 C-8.1875 4.715 -8.1875 4.055 -8.1875 3.375 C-7.5275 3.375 -6.8675 3.375 -6.1875 3.375 C-6.1875 2.715 -6.1875 2.055 -6.1875 1.375 C-3.79410847 -0.16360884 -2.80166935 -0.80047696 0 0 Z " fill="#F1F2F4" transform="translate(110.1875,76.625)"/>
<path d="M0 0 C6.30367803 0.58367389 11.98660063 2.04071619 18 4 C18.6875 6.3125 18.6875 6.3125 19 9 C17.5625 10.8125 17.5625 10.8125 16 12 C11.27934033 10.45730076 6.58335908 8.92205381 2 7 C2 6.01 2 5.02 2 4 C1.01 4.33 0.02 4.66 -1 5 C-1 2 -1 2 0 0 Z " fill="#F3F4F6" transform="translate(565,41)"/>
<path d="M0 0 C6.6 0 13.2 0 20 0 C20 1.98 20 3.96 20 6 C18.15985568 7.84014432 15.2801214 7.17355864 12.8125 7.1875 C11.68457031 7.20167969 10.55664062 7.21585937 9.39453125 7.23046875 C5.94086099 6.99598481 3.21912702 6.23587122 0 5 C0 3.35 0 1.7 0 0 Z " fill="#FCFDFF" transform="translate(361,0)"/>
<path d="M0 0 C6.68183363 1.0440365 12.7465965 2.4042476 19 5 C18.67 6.98 18.34 8.96 18 11 C13.97007218 10.44687265 9.97977076 9.8441938 6 9 C6 8.01 6 7.02 6 6 C3.69 6.33 1.38 6.66 -1 7 C-1.625 5.1875 -1.625 5.1875 -2 3 C-1.34 2.01 -0.68 1.02 0 0 Z " fill="#F4F5F7" transform="translate(811,128)"/>
<path d="M0 0 C1.32 0 2.64 0 4 0 C4 0.99 4 1.98 4 3 C4.99 3 5.98 3 7 3 C7 3.66 7 4.32 7 5 C6.34 5 5.68 5 5 5 C4.79375 5.53625 4.5875 6.0725 4.375 6.625 C2.43217913 9.9807815 0.09623538 12.65238491 -3 15 C-6.375 15.875 -6.375 15.875 -9 16 C-9.75 13.8125 -9.75 13.8125 -10 11 C-8.22336478 8.30441552 -6.90715555 6.45357777 -4 5 C-3.67 4.01 -3.34 3.02 -3 2 C-2.01 2 -1.02 2 0 2 C0 1.34 0 0.68 0 0 Z " fill="#F6F7F9" transform="translate(1241,52)"/>
<path d="M0 0 C0 1.65 0 3.3 0 5 C-5.946072 8.03910346 -11.36906706 8.65226572 -18 9 C-18.66 7.02 -19.32 5.04 -20 3 C-13.4502557 -0.13841915 -7.27782949 -2.04688954 0 0 Z " fill="#F6F7F9" transform="translate(277,6)"/>
<path d="M0 0 C0.75 2.6875 0.75 2.6875 1 6 C-0.6875 8.875 -0.6875 8.875 -3 11 C-4.32 11 -5.64 11 -7 11 C-6.67 12.65 -6.34 14.3 -6 16 C-7.875 17.0625 -7.875 17.0625 -10 18 C-10.66 17.67 -11.32 17.34 -12 17 C-12 16.01 -12 15.02 -12 14 C-12.66 13.67 -13.32 13.34 -14 13 C-13.67 12.01 -13.34 11.02 -13 10 C-12.34 10 -11.68 10 -11 10 C-11 9.01 -11 8.02 -11 7 C-10.34 7 -9.68 7 -9 7 C-8.855625 6.38125 -8.71125 5.7625 -8.5625 5.125 C-8 3 -8 3 -7 1 C-4 0 -4 0 0 0 Z " fill="#F1F2F4" transform="translate(39,151)"/>
<path d="M0 0 C0.515625 0.391875 1.03125 0.78375 1.5625 1.1875 C1.2325 2.5075 0.9025 3.8275 0.5625 5.1875 C-0.4275 4.8575 -1.4175 4.5275 -2.4375 4.1875 C-2.7675 5.8375 -3.0975 7.4875 -3.4375 9.1875 C-5.0875 9.1875 -6.7375 9.1875 -8.4375 9.1875 C-8.4375 10.1775 -8.4375 11.1675 -8.4375 12.1875 C-10.79188733 13.61694945 -11.91782433 14.27411261 -14.6875 13.8125 C-15.265 13.60625 -15.8425 13.4 -16.4375 13.1875 C-17.0625 11.375 -17.0625 11.375 -17.4375 9.1875 C-16.7775 8.1975 -16.1175 7.2075 -15.4375 6.1875 C-14.4475 6.1875 -13.4575 6.1875 -12.4375 6.1875 C-12.4375 5.5275 -12.4375 4.8675 -12.4375 4.1875 C-11.4475 4.1875 -10.4575 4.1875 -9.4375 4.1875 C-9.4375 3.5275 -9.4375 2.8675 -9.4375 2.1875 C-3.0375 -1.0125 -3.0375 -1.0125 0 0 Z " fill="#FAFBFD" transform="translate(1185.4375,101.8125)"/>
<path d="M0 0 C1.87890625 0.2890625 1.87890625 0.2890625 4 1 C4.97259766 1.32097656 4.97259766 1.32097656 5.96484375 1.6484375 C9.91341524 3.10276284 13.4603988 4.67713671 17 7 C16.67 8.65 16.34 10.3 16 12 C8.57142857 12.28571429 8.57142857 12.28571429 5 10 C5 9.01 5 8.02 5 7 C4.05125 7.20625 3.1025 7.4125 2.125 7.625 C1.09375 7.74875 0.0625 7.8725 -1 8 C-1.66 7.34 -2.32 6.68 -3 6 C-2.63318342 3.06546739 -2.13562754 2.13562754 0 0 Z " fill="#F2F3F5" transform="translate(638,71)"/>
<path d="M0 0 C1.24523437 0.01804688 2.49046875 0.03609375 3.7734375 0.0546875 C5.18496094 0.08949219 5.18496094 0.08949219 6.625 0.125 C6.66754356 2.12454746 6.66580783 4.12541636 6.625 6.125 C4.51195955 8.23804045 0.11340485 7.58837406 -2.8125 7.75 C-3.60205078 7.8015625 -4.39160156 7.853125 -5.20507812 7.90625 C-11.12601461 8.24949269 -11.12601461 8.24949269 -13.375 7.125 C-13.375 5.475 -13.375 3.825 -13.375 2.125 C-8.75130977 0.31820413 -4.94971347 -0.09339082 0 0 Z " fill="#FAFBFD" transform="translate(296.375,1.875)"/>
<path d="M0 0 C5.12552327 -0.37503829 8.37794084 0.85404396 13 3 C14.99263591 3.68836513 16.99041337 4.36281399 19 5 C19.125 7.375 19.125 7.375 19 10 C18.34 10.66 17.68 11.32 17 12 C13.82719649 11.56237193 10.94332389 10.22638495 8 9 C8 8.01 8 7.02 8 6 C5.69 6.33 3.38 6.66 1 7 C0.67 4.69 0.34 2.38 0 0 Z " fill="#F8F9FB" transform="translate(685,91)"/>
<path d="M0 0 C1.98 0.99 3.96 1.98 6 3 C5.25 5.875 5.25 5.875 4 9 C1.9375 10.125 1.9375 10.125 0 11 C-0.76230794 12.8817921 -0.76230794 12.8817921 -1 15 C-1.4375 17.1875 -1.4375 17.1875 -2 19 C-2.66 19.33 -3.32 19.66 -4 20 C-6.625 19.0625 -6.625 19.0625 -9 18 C-9 14.80389448 -8.45328458 13.58282374 -7 10.8125 C-6.62875 10.09707031 -6.2575 9.38164062 -5.875 8.64453125 C-5.441875 7.83048828 -5.441875 7.83048828 -5 7 C-4.34 7 -3.68 7 -3 7 C-3 5.68 -3 4.36 -3 3 C-1.5 1.25 -1.5 1.25 0 0 Z " fill="#EBECEE" transform="translate(20,171)"/>
<path d="M0 0 C0.99 0 1.98 0 3 0 C4.125 3.75 4.125 3.75 3 6 C2.34 6 1.68 6 1 6 C1.33 7.32 1.66 8.64 2 10 C-0.97 12.31 -3.94 14.62 -7 17 C-7.33 16.34 -7.66 15.68 -8 15 C-9.32 15.33 -10.64 15.66 -12 16 C-13 13 -13 13 -12.375 11 C-10.63377566 8.46731005 -8.6354363 7.54269442 -6 6 C-5.46375 5.278125 -4.9275 4.55625 -4.375 3.8125 C-3.92125 3.214375 -3.4675 2.61625 -3 2 C-2.01 2 -1.02 2 0 2 C0 1.34 0 0.68 0 0 Z " fill="#E9EAEC" transform="translate(1224,69)"/>
<path d="M0 0 C1.68577711 0.61674772 3.35448038 1.28272222 5 2 C6.9924325 2.37593066 8.9918674 2.71979545 11 3 C11 4.98 11 6.96 11 9 C9.68 9.33 8.36 9.66 7 10 C7 9.01 7 8.02 7 7 C6.01 7.495 6.01 7.495 5 8 C3.45976004 8.06950541 1.91665012 8.08452357 0.375 8.0625 C-0.85089844 8.04896484 -0.85089844 8.04896484 -2.1015625 8.03515625 C-3.04128906 8.01775391 -3.04128906 8.01775391 -4 8 C-4 7.01 -4 6.02 -4 5 C-5.65 5.33 -7.3 5.66 -9 6 C-9.33 4.68 -9.66 3.36 -10 2 C-6.28424249 -0.47717167 -4.40013262 -0.30345742 0 0 Z " fill="#F4F5F7" transform="translate(473,12)"/>
<path d="M0 0 C1.47906892 -0.02689216 2.95827483 -0.04634621 4.4375 -0.0625 C5.26121094 -0.07410156 6.08492188 -0.08570313 6.93359375 -0.09765625 C9 -0 9 -0 10 1 C11.68183948 1.23287008 13.3712416 1.41264166 15.0625 1.5625 C15.98160156 1.64628906 16.90070313 1.73007812 17.84765625 1.81640625 C18.91306641 1.90728516 18.91306641 1.90728516 20 2 C20 3.32 20 4.64 20 6 C19.01 6 18.02 6 17 6 C17 6.99 17 7.98 17 9 C15.33388095 9.042721 13.66617115 9.04063832 12 9 C11.67 8.67 11.34 8.34 11 8 C9.15108054 7.76636119 7.29511969 7.58696365 5.4375 7.4375 C4.42558594 7.35371094 3.41367187 7.26992187 2.37109375 7.18359375 C1.19740234 7.09271484 1.19740234 7.09271484 0 7 C0 4.69 0 2.38 0 0 Z " fill="#F8F9FB" transform="translate(387,0)"/>
<path d="M0 0 C1.3921875 0.3403125 1.3921875 0.3403125 2.8125 0.6875 C2.8125 1.3475 2.8125 2.0075 2.8125 2.6875 C3.864375 2.8421875 3.864375 2.8421875 4.9375 3 C8.20387647 3.78109003 10.8596852 5.10808743 13.8125 6.6875 C13.4375 9.125 13.4375 9.125 12.8125 11.6875 C11.8225 12.1825 11.8225 12.1825 10.8125 12.6875 C10.8125 11.6975 10.8125 10.7075 10.8125 9.6875 C10.296875 10.079375 9.78125 10.47125 9.25 10.875 C6.8125 11.6875 6.8125 11.6875 3.0625 10.3125 C1.99 9.77625 0.9175 9.24 -0.1875 8.6875 C-0.1875 7.6975 -0.1875 6.7075 -0.1875 5.6875 C-1.8375 6.0175 -3.4875 6.3475 -5.1875 6.6875 C-5.875 4.875 -5.875 4.875 -6.1875 2.6875 C-4.40354601 -0.35571562 -3.53300578 -0.34637312 0 0 Z " fill="#F2F3F5" transform="translate(617.1875,61.3125)"/>
<path d="M0 0 C-0.33 0.99 -0.66 1.98 -1 3 C-0.01 3 0.98 3 2 3 C1.67 4.32 1.34 5.64 1 7 C-1.31 6.67 -3.62 6.34 -6 6 C-6 6.99 -6 7.98 -6 9 C-6.61875 9.12375 -7.2375 9.2475 -7.875 9.375 C-10.19120832 9.87197356 -10.19120832 9.87197356 -12 12 C-14.625 11.625 -14.625 11.625 -17 11 C-17.33 9.35 -17.66 7.7 -18 6 C-17.34 6 -16.68 6 -16 6 C-16 5.34 -16 4.68 -16 4 C-14.35 4 -12.7 4 -11 4 C-11 3.34 -11 2.68 -11 2 C-7.17679443 0.57741188 -4.08718695 -0.24042276 0 0 Z " fill="#F4F5F7" transform="translate(201,26)"/>
<path d="M0 0 C0.99 0.33 1.98 0.66 3 1 C5.39254576 1.22560676 7.78928123 1.40848595 10.1875 1.5625 C12.09595703 1.68818359 12.09595703 1.68818359 14.04296875 1.81640625 C15.01878906 1.87699219 15.99460937 1.93757812 17 2 C17 2.99 17 3.98 17 5 C17.99 5 18.98 5 20 5 C19.67 6.32 19.34 7.64 19 9 C14.37078475 10.0161692 10.65537393 9.83796731 6 9 C6 8.01 6 7.02 6 6 C4.02 6.33 2.04 6.66 0 7 C0 4.69 0 2.38 0 0 Z " fill="#F8F9FB" transform="translate(413,2)"/>
<path d="M0 0 C-0.33 2.31 -0.66 4.62 -1 7 C-4.63 7 -8.26 7 -12 7 C-12 7.66 -12 8.32 -12 9 C-13.99954746 9.04254356 -16.00041636 9.04080783 -18 9 C-19 8 -19 8 -19.0625 5.4375 C-19.041875 4.633125 -19.02125 3.82875 -19 3 C-12.47059106 0.04328652 -7.12600133 -0.35368021 0 0 Z " fill="#F8F9FB" transform="translate(1089,141)"/>
<path d="M0 0 C0.99 0.66 1.98 1.32 3 2 C2.67 3.32 2.34 4.64 2 6 C1.34 6 0.68 6 0 6 C-0.1546875 6.9590625 -0.1546875 6.9590625 -0.3125 7.9375 C-0.539375 8.618125 -0.76625 9.29875 -1 10 C-4 11 -4 11 -7 10 C-7.33 11.65 -7.66 13.3 -8 15 C-9.32 15.33 -10.64 15.66 -12 16 C-12.33 15.01 -12.66 14.02 -13 13 C-13.66 12.67 -14.32 12.34 -15 12 C-15 11.01 -15 10.02 -15 9 C-10.77777778 6 -10.77777778 6 -8 6 C-8 5.34 -8 4.68 -8 4 C-5.36 2.68 -2.72 1.36 0 0 Z " fill="#EEEFF1" transform="translate(130,61)"/>
<path d="M0 0 C1.67225729 0.30404678 3.33753959 0.64628502 5 1 C7.66309588 1.36987443 10.32983351 1.68320059 13 2 C13 2.66 13 3.32 13 4 C14.65 4 16.3 4 18 4 C18.93423645 7.01031744 19.04449911 7.86650268 18 11 C16.68 11 15.36 11 14 11 C14 10.01 14 9.02 14 8 C11.69 8.33 9.38 8.66 7 9 C7 8.01 7 7.02 7 6 C5.2984375 6.2784375 5.2984375 6.2784375 3.5625 6.5625 C1.7990625 6.7790625 1.7990625 6.7790625 0 7 C-1 6 -1 6 -1.125 3.5 C-1 1 -1 1 0 0 Z " fill="#EEEFF1" transform="translate(760,115)"/>
<path d="M0 0 C0 1.98 0 3.96 0 6 C-0.99 5.67 -1.98 5.34 -3 5 C-3.99 6.485 -3.99 6.485 -5 8 C-5 7.34 -5 6.68 -5 6 C-5.99 6 -6.98 6 -8 6 C-8 7.32 -8 8.64 -8 10 C-11.13498292 11.85776765 -13.37471432 12.20140476 -17 12 C-17.66 10.35 -18.32 8.7 -19 7 C-5 -2.2 -5 -2.2 0 0 Z " fill="#ECEDEF" transform="translate(1163,115)"/>
<path d="M0 0 C1.9375 0.75 1.9375 0.75 4 2 C4.8125 4 4.8125 4 5 6 C4.67 6.66 4.34 7.32 4 8 C1.525 7.505 1.525 7.505 -1 7 C-1 7.66 -1 8.32 -1 9 C-3 11 -3 11 -5 12 C-5.66 11.67 -6.32 11.34 -7 11 C-7.33 12.65 -7.66 14.3 -8 16 C-8.66 16 -9.32 16 -10 16 C-10 15.01 -10 14.02 -10 13 C-11.32 13.33 -12.64 13.66 -14 14 C-13.67 12.35 -13.34 10.7 -13 9 C-12.34 9 -11.68 9 -11 9 C-11 8.34 -11 7.68 -11 7 C-9.68 7 -8.36 7 -7 7 C-7 6.34 -7 5.68 -7 5 C-5.46875 3.7109375 -5.46875 3.7109375 -3.5 2.375 C-2.8503125 1.92898437 -2.200625 1.48296875 -1.53125 1.0234375 C-0.77328125 0.51683594 -0.77328125 0.51683594 0 0 Z " fill="#FAFBFD" transform="translate(1204,86)"/>
<path d="M0 0 C2.60662244 0.25496307 5.20905522 0.52820293 7.8125 0.8125 C8.55048828 0.88275391 9.28847656 0.95300781 10.04882812 1.02539062 C13.05798073 1.3657925 15.49461634 1.67735393 18.07421875 3.32421875 C19 5 19 5 18.6875 7.1875 C18.460625 7.785625 18.23375 8.38375 18 9 C16.10448978 9.05441656 14.2085208 9.09298035 12.3125 9.125 C11.25675781 9.14820313 10.20101562 9.17140625 9.11328125 9.1953125 C5.97748141 8.99858729 3.82354627 8.33057654 1 7 C1 6.01 1 5.02 1 4 C0.34 4 -0.32 4 -1 4 C-0.67 2.68 -0.34 1.36 0 0 Z " fill="#F4F5F7" transform="translate(862,139)"/>
<path d="M0 0 C-0.33 1.65 -0.66 3.3 -1 5 C-0.34 5.33 0.32 5.66 1 6 C-0.6875 7.5625 -0.6875 7.5625 -3 9 C-5.75 8.6875 -5.75 8.6875 -8 8 C-8.33 8.99 -8.66 9.98 -9 11 C-9.99 10.67 -10.98 10.34 -12 10 C-12.33 10.99 -12.66 11.98 -13 13 C-14.65 12.67 -16.3 12.34 -18 12 C-18 10.68 -18 9.36 -18 8 C-17.34 8 -16.68 8 -16 8 C-16 7.34 -16 6.68 -16 6 C-13.69 5.34 -11.38 4.68 -9 4 C-9 3.34 -9 2.68 -9 2 C-5.62902617 0.50178941 -3.79557881 0 0 0 Z " fill="#EAEBED" transform="translate(155,48)"/>
<path d="M0 0 C10.55808656 1.92710706 10.55808656 1.92710706 15 4 C14.67 4.99 14.34 5.98 14 7 C14.99 7 15.98 7 17 7 C17.33 6.34 17.66 5.68 18 5 C18 6.98 18 8.96 18 11 C15.125 11.125 15.125 11.125 12 11 C11.34 10.34 10.68 9.68 10 9 C7.41645782 8.83312552 7.41645782 8.83312552 5 9 C5 8.01 5 7.02 5 6 C3.02 6.33 1.04 6.66 -1 7 C-0.67 4.69 -0.34 2.38 0 0 Z " fill="#F3F4F6" transform="translate(516,24)"/>
<path d="M0 0 C1.65 0.33 3.3 0.66 5 1 C4.67 2.32 4.34 3.64 4 5 C4.66 5 5.32 5 6 5 C6 5.66 6 6.32 6 7 C4.68 7 3.36 7 2 7 C2.33 8.32 2.66 9.64 3 11 C2.01 11 1.02 11 0 11 C0.185625 11.969375 0.37125 12.93875 0.5625 13.9375 C0.706875 14.948125 0.85125 15.95875 1 17 C0 18 0 18 -3.0625 18.0625 C-4.031875 18.041875 -5.00125 18.02125 -6 18 C-6 15.69 -6 13.38 -6 11 C-5.34 11 -4.68 11 -4 11 C-4 9.35 -4 7.7 -4 6 C-3.34 6 -2.68 6 -2 6 C-2 4.68 -2 3.36 -2 2 C-1.34 2 -0.68 2 0 2 C0 1.34 0 0.68 0 0 Z " fill="#EFF0F2" transform="translate(6,194)"/>
<path d="M0 0 C1.32 0.33 2.64 0.66 4 1 C4 4 4 4 3 6 C2.34 6 1.68 6 1 6 C1.2475 6.556875 1.495 7.11375 1.75 7.6875 C2 10 2 10 0.3125 12.75 C-2 15 -2 15 -6 15 C-6.33 15.99 -6.66 16.98 -7 18 C-7.66 17.34 -8.32 16.68 -9 16 C-9.33 16 -9.66 16 -10 16 C-10 14.35 -10 12.7 -10 11 C-9.34 11 -8.68 11 -8 11 C-8 10.34 -8 9.68 -8 9 C-7.34 9 -6.68 9 -6 9 C-5.7525 8.443125 -5.505 7.88625 -5.25 7.3125 C-3.78393985 4.60028873 -1.97010529 2.36412635 0 0 Z " fill="#EBECEE" transform="translate(51,130)"/>
<path d="M0 0 C0 0.66 0 1.32 0 2 C0.99 2.33 1.98 2.66 3 3 C3 3.99 3 4.98 3 6 C1.68 5.67 0.36 5.34 -1 5 C-1 5.99 -1 6.98 -1 8 C-1.99 8 -2.98 8 -4 8 C-4 8.66 -4 9.32 -4 10 C-4.94875 9.95875 -5.8975 9.9175 -6.875 9.875 C-10.10244856 9.65026182 -10.10244856 9.65026182 -12 12 C-12.66 11.67 -13.32 11.34 -14 11 C-14 10.34 -14 9.68 -14 9 C-14.66 9 -15.32 9 -16 9 C-15.73828125 7.1015625 -15.73828125 7.1015625 -15 5 C-13.29296875 4.0234375 -13.29296875 4.0234375 -11.1875 3.375 C-8.88635109 2.62301741 -6.84748679 1.92168241 -4.6875 0.8125 C-3 0 -3 0 0 0 Z " fill="#F3F4F6" transform="translate(1136,125)"/>
<path d="M0 0 C0.763125 0.20625 1.52625 0.4125 2.3125 0.625 C2.6425 2.275 2.9725 3.925 3.3125 5.625 C1.9925 5.295 0.6725 4.965 -0.6875 4.625 C-1.0175 5.615 -1.3475 6.605 -1.6875 7.625 C-2.6775 7.295 -3.6675 6.965 -4.6875 6.625 C-4.6875 7.615 -4.6875 8.605 -4.6875 9.625 C-5.326875 9.74875 -5.96625 9.8725 -6.625 10 C-7.305625 10.20625 -7.98625 10.4125 -8.6875 10.625 C-9.0175 11.285 -9.3475 11.945 -9.6875 12.625 C-11.3375 12.295 -12.9875 11.965 -14.6875 11.625 C-15.0175 9.975 -15.3475 8.325 -15.6875 6.625 C-14.6975 6.625 -13.7075 6.625 -12.6875 6.625 C-12.6875 5.965 -12.6875 5.305 -12.6875 4.625 C-10.09960938 3.55078125 -10.09960938 3.55078125 -7.51171875 2.4765625 C-1.69866951 -0.23702365 -1.69866951 -0.23702365 0 0 Z " fill="#F7F8FA" transform="translate(175.6875,36.375)"/>
<path d="M0 0 C0.73734375 -0.01224609 1.4746875 -0.02449219 2.234375 -0.03710938 C4.15770058 -0.04237395 6.08054263 0.06546553 8 0.1875 C10 2.1875 10 2.1875 10 5.1875 C8.68 5.1875 7.36 5.1875 6 5.1875 C6 5.8475 6 6.5075 6 7.1875 C1.05 6.8575 -3.9 6.5275 -9 6.1875 C-9.33 4.5375 -9.66 2.8875 -10 1.1875 C-6.84044583 -0.39227708 -3.46536183 0.00302916 0 0 Z " fill="#FCFDFF" transform="translate(975,150.8125)"/>
<path d="M0 0 C0.38133299 1.9914056 0.71325582 3.99279077 1 6 C0 7 0 7 -1.76586914 7.11352539 C-2.51473389 7.10828857 -3.26359863 7.10305176 -4.03515625 7.09765625 C-4.84404297 7.09443359 -5.65292969 7.09121094 -6.48632812 7.08789062 C-7.33646484 7.07951172 -8.18660156 7.07113281 -9.0625 7.0625 C-9.91650391 7.05798828 -10.77050781 7.05347656 -11.65039062 7.04882812 C-13.76695663 7.03700373 -15.88348685 7.01906769 -18 7 C-18.042721 5.33388095 -18.04063832 3.66617115 -18 2 C-16.02020435 0.02020435 -12.28173131 0.59066077 -9.5625 0.4375 C-8.86833984 0.39431641 -8.17417969 0.35113281 -7.45898438 0.30664062 C-2.43105159 0 -2.43105159 0 0 0 Z " fill="#FCFDFF" transform="translate(1010,150)"/>
<path d="M0 0 C6.6 0 13.2 0 20 0 C20 1.65 20 3.3 20 5 C13.4 5 6.8 5 0 5 C0 3.35 0 1.7 0 0 Z " fill="#FCFDFF" transform="translate(335,0)"/>
<path d="M0 0 C0.33 0.99 0.66 1.98 1 3 C0.34 2.67 -0.32 2.34 -1 2 C-0.67 1.34 -0.34 0.68 0 0 Z " fill="#87888A" transform="translate(1228,73)"/>
<path d="" fill="#121315" transform="translate(0,0)"/>
<path d="M0 0 C2 1 2 1 2 1 Z " fill="#121315" transform="translate(1077,148)"/>
<path d="" fill="#121315" transform="translate(0,0)"/>
<path d="M0 0 C2 1 2 1 2 1 Z " fill="#121315" transform="translate(1177,111)"/>
<path d="M0 0 C2 1 2 1 2 1 Z " fill="#121315" transform="translate(167,46)"/>
<path d="M0 0 C2 1 2 1 2 1 Z " fill="#121315" transform="translate(191,35)"/>
<path d="" fill="#121315" transform="translate(0,0)"/>
<path d="" fill="#121315" transform="translate(0,0)"/>
<path d="" fill="#121315" transform="translate(0,0)"/>
<path d="" fill="#121315" transform="translate(0,0)"/>
<path d="" fill="#121315" transform="translate(0,0)"/>
<path d="" fill="#121315" transform="translate(0,0)"/>
<path d="" fill="#121315" transform="translate(0,0)"/>
<path d="" fill="#121315" transform="translate(0,0)"/>
<path d="" fill="#121315" transform="translate(0,0)"/>
<path d="" fill="#121315" transform="translate(0,0)"/>
<path d="" fill="#121315" transform="translate(0,0)"/>
<path d="" fill="#121315" transform="translate(0,0)"/>
<path d="" fill="#FCFDFF" transform="translate(0,0)"/>
<path d="" fill="#121315" transform="translate(0,0)"/>
<path d="" fill="#FCFDFF" transform="translate(0,0)"/>
<path d="" fill="#121315" transform="translate(0,0)"/>
<path d="" fill="#121315" transform="translate(0,0)"/>
<path d="" fill="#121315" transform="translate(0,0)"/>
<path d="" fill="#121315" transform="translate(0,0)"/>
<path d="" fill="#121315" transform="translate(0,0)"/>
<path d="" fill="#121315" transform="translate(0,0)"/>
<path d="" fill="#121315" transform="translate(0,0)"/>
<path d="" fill="#121315" transform="translate(0,0)"/>
<path d="" fill="#121315" transform="translate(0,0)"/>
<path d="" fill="#121315" transform="translate(0,0)"/>
<path d="" fill="#121315" transform="translate(0,0)"/>
<path d="" fill="#121315" transform="translate(0,0)"/>
<path d="" fill="#121315" transform="translate(0,0)"/>
<path d="" fill="#121315" transform="translate(0,0)"/>
<path d="" fill="#121315" transform="translate(0,0)"/>
<path d="" fill="#121315" transform="translate(0,0)"/>
<path d="" fill="#121315" transform="translate(0,0)"/>
<path d="" fill="#FCFDFF" transform="translate(0,0)"/>
<path d="" fill="#121315" transform="translate(0,0)"/>
<path d="" fill="#FCFDFF" transform="translate(0,0)"/>
<path d="" fill="#121315" transform="translate(0,0)"/>
<path d="" fill="#121315" transform="translate(0,0)"/>
<path d="" fill="#121315" transform="translate(0,0)"/>
<path d="" fill="#121315" transform="translate(0,0)"/>
<path d="" fill="#121315" transform="translate(0,0)"/>
<path d="" fill="#121315" transform="translate(0,0)"/>
<path d="" fill="#121315" transform="translate(0,0)"/>
<path d="" fill="#121315" transform="translate(0,0)"/>
<path d="" fill="#121315" transform="translate(0,0)"/>
<path d="" fill="#121315" transform="translate(0,0)"/>
<path d="" fill="#FCFDFF" transform="translate(0,0)"/>
<path d="" fill="#121315" transform="translate(0,0)"/>
<path d="" fill="#FCFDFF" transform="translate(0,0)"/>
<path d="" fill="#121315" transform="translate(0,0)"/>
<path d="" fill="#121315" transform="translate(0,0)"/>
<path d="" fill="#121315" transform="translate(0,0)"/>
<path d="" fill="#121315" transform="translate(0,0)"/>
<path d="" fill="#121315" transform="translate(0,0)"/>
<path d="" fill="#121315" transform="translate(0,0)"/>
<path d="" fill="#121315" transform="translate(0,0)"/>
<path d="" fill="#121315" transform="translate(0,0)"/>
<path d="" fill="#121315" transform="translate(0,0)"/>
<path d="" fill="#121315" transform="translate(0,0)"/>
<path d="" fill="#121315" transform="translate(0,0)"/>
<path d="" fill="#121315" transform="translate(0,0)"/>
<path d="" fill="#121315" transform="translate(0,0)"/>
<path d="" fill="#121315" transform="translate(0,0)"/>
<path d="" fill="#121315" transform="translate(0,0)"/>
<path d="" fill="#121315" transform="translate(0,0)"/>
<path d="" fill="#121315" transform="translate(0,0)"/>
<path d="" fill="#121315" transform="translate(0,0)"/>
<path d="" fill="#121315" transform="translate(0,0)"/>
<path d="" fill="#121315" transform="translate(0,0)"/>
</svg>
