<?xml version="1.0" encoding="UTF-8"?>
<!-- Generator: visioncortex VTracer 0.6.2 -->
<svg version="1.1" xmlns="http://www.w3.org/2000/svg" width="1280" height="215">
<path d="M0 0 C0.74886475 0.00523682 1.49772949 0.01047363 2.26928711 0.01586914 C3.07817383 0.0190918 3.88706055 0.02231445 4.72045898 0.02563477 C5.5705957 0.03401367 6.42073242 0.04239258 7.29663086 0.05102539 C8.15063477 0.05553711 9.00463867 0.06004883 9.88452148 0.06469727 C12.00108749 0.07652166 14.11761771 0.0944577 16.23413086 0.11352539 C16.85913086 1.92602539 16.85913086 1.92602539 17.23413086 4.11352539 C15.23413086 7.11352539 15.23413086 7.11352539 12.23413086 7.80102539 C7.60357855 8.27971118 2.87962904 8.41610573 -1.76586914 8.11352539 C-2.76586914 7.11352539 -2.76586914 7.11352539 -2.89086914 4.11352539 C-2.72677645 0.17530085 -2.72677645 0.17530085 0 0 Z " fill="#FBFCFD" transform="translate(946.765869140625,57.886474609375)"/>
<path d="M0 0 C1.56125851 0.00399299 3.12251789 0.01875614 4.68359375 0.04296875 C5.47701172 0.04361328 6.27042969 0.04425781 7.08789062 0.04492188 C12.98083853 0.09021353 12.98083853 0.09021353 14.12109375 1.23046875 C14.12109375 3.21046875 14.12109375 5.19046875 14.12109375 7.23046875 C7.19109375 7.23046875 0.26109375 7.23046875 -6.87890625 7.23046875 C-5.49814799 0.32667747 -5.49814799 0.32667747 0 0 Z " fill="#FBFCFD" transform="translate(371.87890625,207.76953125)"/>
<path d="M0 0 C1.02770508 0.0009668 1.02770508 0.0009668 2.07617188 0.00195312 C7.15614073 0.04682037 7.15614073 0.04682037 9.4375 1.1875 C9.1075 2.8375 8.7775 4.4875 8.4375 6.1875 C2.37476645 7.98386549 -3.22961248 8.71832683 -9.5625 8.1875 C-10.5625 7.1875 -10.5625 7.1875 -10.8125 4.75 C-10.73 3.904375 -10.6475 3.05875 -10.5625 2.1875 C-6.91683792 -0.24294139 -4.20613257 -0.07560692 0 0 Z " fill="#FBFCFD" transform="translate(928.5625,59.8125)"/>
<path d="M0 0 C5.94 0 11.88 0 18 0 C18.66 1.65 19.32 3.3 20 5 C19.67 5.66 19.34 6.32 19 7 C16.04142591 7.05379226 13.08382279 7.09357093 10.125 7.125 C8.86236328 7.15013672 8.86236328 7.15013672 7.57421875 7.17578125 C6.76855469 7.18222656 5.96289062 7.18867188 5.1328125 7.1953125 C4.38918457 7.20578613 3.64555664 7.21625977 2.87939453 7.22705078 C1 7 1 7 -1 5 C-0.67 3.35 -0.34 1.7 0 0 Z " fill="#FBFCFD" transform="translate(314,208)"/>
<path d="M0 0 C2 1.8125 2 1.8125 4 4 C4 4.99 4 5.98 4 7 C-8.42793296 12.57988827 -8.42793296 12.57988827 -15 12 C-16 11 -16 11 -16.25 8.5625 C-16.1675 7.716875 -16.085 6.87125 -16 6 C-12.83825079 3.89216719 -10.54831926 3.282806 -6.875 2.4375 C-3.12980201 1.83335605 -3.12980201 1.83335605 0 0 Z " fill="#FBFCFD" transform="translate(756,95)"/>
<path d="M0 0 C0.66 0.66 1.32 1.32 2 2 C1.8125 4 1.8125 4 1 6 C-4.76240474 9.84160316 -10.29157865 10.23538321 -17 10 C-17.33 8.35 -17.66 6.7 -18 5 C-12.78089004 1.4118619 -6.39611424 -0.75248403 0 0 Z " fill="#FBFCFD" transform="translate(808,82)"/>
<path d="M0 0 C6.58199519 0.04555014 12.14583762 1.00787256 18 4 C18 5.65 18 7.3 18 9 C10.56621057 9.33452052 4.80122845 9.13902852 -2 6 C-1.125 1.125 -1.125 1.125 0 0 Z " fill="#FBFCFD" transform="translate(263,200)"/>
<path d="M0 0 C0.93423645 3.01031744 1.04449911 3.86650268 0 7 C-2.80078125 8.1328125 -2.80078125 8.1328125 -6.3125 9.125 C-7.46363281 9.45757812 -8.61476563 9.79015625 -9.80078125 10.1328125 C-10.85652344 10.41898438 -11.91226563 10.70515625 -13 11 C-13.77730469 11.22429687 -14.55460938 11.44859375 -15.35546875 11.6796875 C-16.16951172 11.83824219 -16.16951172 11.83824219 -17 12 C-18 11 -18 11 -18.0625 7.9375 C-18.041875 6.968125 -18.02125 5.99875 -18 5 C-5.85377358 -0.34433962 -5.85377358 -0.34433962 0 0 Z " fill="#FBFCFD" transform="translate(564,171)"/>
<path d="M0 0 C0.66 1.65 1.32 3.3 2 5 C-0.36537655 7.76733596 -2.39201195 8.66162033 -5.875 9.625 C-7.13957031 9.98464844 -7.13957031 9.98464844 -8.4296875 10.3515625 C-9.27789063 10.56554687 -10.12609375 10.77953125 -11 11 C-12.33417969 11.35191406 -12.33417969 11.35191406 -13.6953125 11.7109375 C-14.45585938 11.80632812 -15.21640625 11.90171875 -16 12 C-16.66 11.34 -17.32 10.68 -18 10 C-17.859375 8.0078125 -17.859375 8.0078125 -17 6 C-15.328125 4.8046875 -15.328125 4.8046875 -13.25 3.875 C-12.528125 3.54757813 -11.80625 3.22015625 -11.0625 2.8828125 C-10.381875 2.59148437 -9.70125 2.30015625 -9 2 C-8.0925 1.5875 -7.185 1.175 -6.25 0.75 C-4 0 -4 0 0 0 Z " fill="#FBFCFD" transform="translate(684,121)"/>
<path d="M0 0 C6.40629424 -0.20852314 11.92972642 -0.1583195 18 2 C18.042721 3.66611905 18.04063832 5.33382885 18 7 C17 8 17 8 13.40234375 8.09765625 C11.91403133 8.0909822 10.42573568 8.07902183 8.9375 8.0625 C7.79958008 8.05573242 7.79958008 8.05573242 6.63867188 8.04882812 C4.75908129 8.0370068 2.87953101 8.01907078 1 8 C-1.125 3.375 -1.125 3.375 0 0 Z " fill="#FBFCFD" transform="translate(1023,58)"/>
<path d="M0 0 C3.97842599 0.33858945 7.27098673 1.73460641 10.9375 3.25 C12.4225 3.8378125 12.4225 3.8378125 13.9375 4.4375 C14.5975 4.705625 15.2575 4.97375 15.9375 5.25 C15.6075 7.23 15.2775 9.21 14.9375 11.25 C11.31571421 11.25 8.82210089 10.8223665 5.375 9.875 C4.42496094 9.61976563 3.47492188 9.36453125 2.49609375 9.1015625 C-0.0625 8.25 -0.0625 8.25 -3.0625 6.25 C-3.3125 3.6875 -3.3125 3.6875 -3.0625 1.25 C-2.0625 0.25 -2.0625 0.25 0 0 Z " fill="#FBFCFD" transform="translate(214.0625,185.75)"/>
<path d="M0 0 C4.23316828 0.48052181 7.55511023 2.12187012 11.3125 4.0625 C12.38113281 4.61035156 13.44976562 5.15820312 14.55078125 5.72265625 C15.35902344 6.14417969 16.16726562 6.56570312 17 7 C17 8.65 17 10.3 17 12 C15.328125 13.1484375 15.328125 13.1484375 13 14 C10.421875 13.1015625 10.421875 13.1015625 7.75 11.625 C6.85796875 11.14289063 5.9659375 10.66078125 5.046875 10.1640625 C4.03367188 9.58785156 4.03367188 9.58785156 3 9 C3 8.34 3 7.68 3 7 C1.68 7 0.36 7 -1 7 C-1.04254356 5.00045254 -1.04080783 2.99958364 -1 1 C-0.67 0.67 -0.34 0.34 0 0 Z " fill="#FBFCFD" transform="translate(164,165)"/>
<path d="M0 0 C4.97874064 0.47416578 8.06718758 1.9099331 12 5 C12 5.66 12 6.32 12 7 C13.32 7.33 14.64 7.66 16 8 C17.125 11.75 17.125 11.75 16 14 C14.28515625 14.86328125 14.28515625 14.86328125 12 15 C9.30859375 13.41796875 9.30859375 13.41796875 6.4375 11.1875 C5.48746094 10.45917969 4.53742188 9.73085937 3.55859375 8.98046875 C2.71425781 8.32691406 1.86992188 7.67335937 1 7 C0.01 6.34 -0.98 5.68 -2 5 C-1.34 3.35 -0.68 1.7 0 0 Z " fill="#FBFCFD" transform="translate(119,138)"/>
<path d="M0 0 C3.46666113 1.34898335 6.3114924 3.56565866 9.25 5.8125 C10.58804688 6.81216797 10.58804688 6.81216797 11.953125 7.83203125 C14 10 14 10 14.296875 12.76171875 C14.19890625 13.50035156 14.1009375 14.23898438 14 15 C11.6875 15.625 11.6875 15.625 9 16 C8.01 15.34 7.02 14.68 6 14 C6 13.34 6 12.68 6 12 C5.2575 11.7525 4.515 11.505 3.75 11.25 C0.69801934 9.86273607 -0.9994481 8.69305063 -3 6 C-2.875 3.3125 -2.875 3.3125 -2 1 C-1.34 0.67 -0.68 0.34 0 0 Z " fill="#FBFCFD" transform="translate(100,121)"/>
<path d="M0 0 C4.66861981 1.60483806 9.09258167 3.97490194 13 7 C13 7.66 13 8.32 13 9 C13.99 9.33 14.98 9.66 16 10 C15.67 11.32 15.34 12.64 15 14 C12.890625 14.76953125 12.890625 14.76953125 10 15 C7.67832545 13.64176146 5.80829502 12.36490954 3.75 10.6875 C2.93789062 10.06198242 2.93789062 10.06198242 2.109375 9.42382812 C-1.83300681 6.33398638 -1.83300681 6.33398638 -3 4 C-2.01 2.68 -1.02 1.36 0 0 Z " fill="#FBFCFD" transform="translate(1195,112)"/>
<path d="M0 0 C0.66 0.66 1.32 1.32 2 2 C1.44444444 6.55555556 1.44444444 6.55555556 0 8 C-2.83908274 8.2639643 -5.65481371 8.46872159 -8.5 8.625 C-9.29792969 8.6765625 -10.09585938 8.728125 -10.91796875 8.78125 C-12.94325187 8.89815938 -14.97186912 8.95390612 -17 9 C-18 8 -18 8 -18.0625 5.4375 C-18.041875 4.633125 -18.02125 3.82875 -18 3 C-15.93918639 2.49309416 -13.87626474 1.99475381 -11.8125 1.5 C-10.66394531 1.2215625 -9.51539063 0.943125 -8.33203125 0.65625 C-5.40220992 0.07921602 -2.96427142 -0.2948476 0 0 Z " fill="#FBFCFD" transform="translate(910,62)"/>
<path d="M0 0 C2.64653131 0.30731987 5.292115 0.62059322 7.9375 0.9375 C8.69224609 1.02451172 9.44699219 1.11152344 10.22460938 1.20117188 C15.88671875 1.88671875 15.88671875 1.88671875 17 3 C17.125 6 17.125 6 17 9 C16 10 16 10 13.5 10.125 C11 10 11 10 10 9 C8.15108054 8.76636119 6.29511969 8.58696365 4.4375 8.4375 C3.42558594 8.35371094 2.41367188 8.26992187 1.37109375 8.18359375 C0.58863281 8.12300781 -0.19382812 8.06242187 -1 8 C-1.625 5.6875 -1.625 5.6875 -2 3 C-1.34 2.01 -0.68 1.02 0 0 Z " fill="#FBFCFD" transform="translate(1050,60)"/>
<path d="M0 0 C0.33 1.65 0.66 3.3 1 5 C-5.54158399 8.65111665 -11.63879629 8.29887594 -19 8 C-19 6.35 -19 4.7 -19 3 C-12.47059106 0.04328652 -7.12600133 -0.35368021 0 0 Z " fill="#FBFCFD" transform="translate(463,199)"/>
<path d="M0 0 C1.9375 0.1875 1.9375 0.1875 4 1 C5.25 3.0625 5.25 3.0625 6 5 C3.63462345 7.76733596 1.60798805 8.66162033 -1.875 9.625 C-3.13957031 9.98464844 -3.13957031 9.98464844 -4.4296875 10.3515625 C-5.27789063 10.56554687 -6.12609375 10.77953125 -7 11 C-8.33417969 11.35191406 -8.33417969 11.35191406 -9.6953125 11.7109375 C-10.45585938 11.80632812 -11.21640625 11.90171875 -12 12 C-12.66 11.34 -13.32 10.68 -14 10 C-13.625 7.375 -13.625 7.375 -13 5 C-12.14535156 4.72285156 -11.29070313 4.44570312 -10.41015625 4.16015625 C-9.30542969 3.79792969 -8.20070313 3.43570313 -7.0625 3.0625 C-5.96035156 2.70285156 -4.85820313 2.34320313 -3.72265625 1.97265625 C-1.11876525 1.26143332 -1.11876525 1.26143332 0 0 Z " fill="#FBFCFD" transform="translate(584,162)"/>
<path d="M0 0 C4.51720311 -0.36625971 4.51720311 -0.36625971 6.8125 1.375 C8 3 8 3 8 5 C8.66 5 9.32 5 10 5 C10 5.66 10 6.32 10 7 C10.66 7 11.32 7 12 7 C12 7.66 12 8.32 12 9 C12.66 9 13.32 9 14 9 C15.125 13.75 15.125 13.75 14 16 C12.35 16 10.7 16 9 16 C9 15.34 9 14.68 9 14 C8.34 14 7.68 14 7 14 C7 13.34 7 12.68 7 12 C6.34 12 5.68 12 5 12 C5 11.34 5 10.68 5 10 C4.34 10 3.68 10 3 10 C0.8125 7.8125 0.8125 7.8125 -1 5 C-0.75 2.1875 -0.75 2.1875 0 0 Z " fill="#FBFCFD" transform="translate(60,86)"/>
<path d="M0 0 C0 1.98 0 3.96 0 6 C-3.7522584 7.65684137 -7.26353061 8.50208163 -11.3125 9.125 C-12.38113281 9.29257813 -13.44976563 9.46015625 -14.55078125 9.6328125 C-15.35902344 9.75398438 -16.16726563 9.87515625 -17 10 C-19 7 -19 7 -18.625 4.3125 C-18.41875 3.549375 -18.2125 2.78625 -18 2 C-11.85221129 0.3722167 -6.35987804 -0.20190089 0 0 Z " fill="#FBFCFD" transform="translate(860,71)"/>
<path d="M0 0 C2.69921875 0.35546875 2.69921875 0.35546875 4.8671875 2.3671875 C5.53363281 3.25019531 6.20007813 4.13320313 6.88671875 5.04296875 C7.56089844 5.91308594 8.23507813 6.78320312 8.9296875 7.6796875 C10.59207459 10.19345164 11.70343361 12.52131105 12.69921875 15.35546875 C10.69921875 17.35546875 10.69921875 17.35546875 8.33984375 17.8046875 C5.69921875 17.35546875 5.69921875 17.35546875 3.49609375 15.125 C2.820625 14.14917969 2.14515625 13.17335938 1.44921875 12.16796875 C0.42054687 10.72357422 0.42054687 10.72357422 -0.62890625 9.25 C-2.22394281 6.48849979 -3.00919377 4.51246396 -3.30078125 1.35546875 C-2.30078125 0.35546875 -2.30078125 0.35546875 0 0 Z " fill="#FBFCFD" transform="translate(29.30078125,44.64453125)"/>
<path d="M0 0 C2.31 0 4.62 0 7 0 C7.433125 1.216875 7.86625 2.43375 8.3125 3.6875 C9.27416375 6.28399212 10.22802517 8.37159658 11.6875 10.75 C13 13 13 13 13 17 C11.02 17.33 9.04 17.66 7 18 C6.67 16.68 6.34 15.36 6 14 C5.34 14 4.68 14 4 14 C-0.59225513 4.58997722 -0.59225513 4.58997722 0 0 Z " fill="#FBFCFD" transform="translate(0,0)"/>
<path d="M0 0 C1 1 1 1 1.125 3.5 C1 6 1 6 0 7 C-2.98584656 7.29123035 -5.94456299 7.51549213 -8.9375 7.6875 C-9.77474609 7.74744141 -10.61199219 7.80738281 -11.47460938 7.86914062 C-12.67633789 7.9397168 -12.67633789 7.9397168 -13.90234375 8.01171875 C-14.63960693 8.05772217 -15.37687012 8.10372559 -16.13647461 8.15112305 C-18 8 -18 8 -20 6 C-19.625 3.875 -19.625 3.875 -19 2 C-12.66078938 0.28504447 -6.57726846 -0.56115584 0 0 Z " fill="#FBFCFD" transform="translate(411,206)"/>
<path d="M0 0 C1 1 1 1 1.0625 3.5625 C1.041875 4.366875 1.02125 5.17125 1 6 C-3.62369023 7.80679587 -7.42528653 8.21839082 -12.375 8.125 C-13.62023437 8.10695312 -14.86546875 8.08890625 -16.1484375 8.0703125 C-17.55996094 8.03550781 -17.55996094 8.03550781 -19 8 C-19.33 6.68 -19.66 5.36 -20 4 C-17.02743041 1.44523397 -15.02434909 0.58581886 -11.125 0.3125 C-10.25230469 0.24933594 -9.37960937 0.18617188 -8.48046875 0.12109375 C-5.64083584 -0.017534 -2.84108642 -0.14569674 0 0 Z " fill="#FBFCFD" transform="translate(437,203)"/>
<path d="M0 0 C3.93438516 0.58627283 6.77930831 1.77583477 10.1875 3.8125 C11.04730469 4.31394531 11.90710938 4.81539062 12.79296875 5.33203125 C15.1031698 7.0779708 15.96440026 8.33289677 17 11 C16.01 12.485 16.01 12.485 15 14 C10.75470982 13.41792182 7.80789577 11.95085318 4.1875 9.6875 C3.21167969 9.09324219 2.23585937 8.49898437 1.23046875 7.88671875 C0.49441406 7.26410156 -0.24164063 6.64148438 -1 6 C-1 2 -1 2 0 0 Z " fill="#FBFCFD" transform="translate(141,152)"/>
<path d="M0 0 C0.33 1.65 0.66 3.3 1 5 C-9.30229592 12.2869898 -9.30229592 12.2869898 -14.9375 11.6875 C-15.618125 11.460625 -16.29875 11.23375 -17 11 C-17.33 9.35 -17.66 7.7 -18 6 C-5.63248503 -0.32185629 -5.63248503 -0.32185629 0 0 Z " fill="#FBFCFD" transform="translate(636,141)"/>
<path d="M0 0 C1.32 0 2.64 0 4 0 C4 0.66 4 1.32 4 2 C4.66 2 5.32 2 6 2 C6 2.66 6 3.32 6 4 C6.556875 4.226875 7.11375 4.45375 7.6875 4.6875 C10.74155835 6.42088447 12.7825433 8.27569606 15 11 C14.8125 13.8125 14.8125 13.8125 14 16 C9.61263833 15.47130714 7.16579094 13.94365467 3.75 11.1875 C2.87859375 10.50042969 2.0071875 9.81335938 1.109375 9.10546875 C-1.03981029 6.96026343 -1.87779255 6.01241369 -2 3 C-1.34 2.01 -0.68 1.02 0 0 Z " fill="#FBFCFD" transform="translate(79,104)"/>
<path d="M0 0 C2.89453125 1.62890625 2.89453125 1.62890625 5.8125 3.5625 C7.27623047 4.52349609 7.27623047 4.52349609 8.76953125 5.50390625 C9.50558594 5.99761719 10.24164062 6.49132812 11 7 C10.67 8.65 10.34 10.3 10 12 C8.4375 12.75 8.4375 12.75 6 13 C3.49713591 11.86915563 1.32992278 10.47860484 -1 9 C-1 8.34 -1 7.68 -1 7 C-1.928125 6.7834375 -1.928125 6.7834375 -2.875 6.5625 C-5 6 -5 6 -7 5 C-7 3.35 -7 1.7 -7 0 C-4.22640195 -1.38679903 -2.96440687 -0.84999398 0 0 Z " fill="#FBFCFD" transform="translate(1178,100)"/>
<path d="M0 0 C6.44851898 -0.40303244 11.10070492 0.30909347 17 3 C17.66 3.66 18.32 4.32 19 5 C18.625 7.625 18.625 7.625 18 10 C11.40387016 10.5073946 5.45940276 8.63960184 0 5 C-0.1875 2.375 -0.1875 2.375 0 0 Z " fill="#FBFCFD" transform="translate(1099,71)"/>
<path d="M0 0 C4.37336228 1.37338921 6.51333672 3.26467582 9.375 6.8125 C10.43847656 8.09060547 10.43847656 8.09060547 11.5234375 9.39453125 C13 12 13 12 12.7265625 14.82421875 C12.36691406 15.90123047 12.36691406 15.90123047 12 17 C10.68 17.33 9.36 17.66 8 18 C8 17.34 8 16.68 8 16 C7.34 16 6.68 16 6 16 C4.37643654 14.03062339 2.86440434 12.06654852 1.375 10 C0.95476563 9.42765625 0.53453125 8.8553125 0.1015625 8.265625 C-0.93805801 6.84796067 -1.96977591 5.42450738 -3 4 C-2.01 2.68 -1.02 1.36 0 0 Z " fill="#FBFCFD" transform="translate(44,65)"/>
<path d="M0 0 C6.43681228 0.51085812 11.95942424 1.72942897 18 4 C18 5.98 18 7.96 18 10 C13.86175948 11.75529482 10.30717946 10.09000877 6.3125 8.6875 C5.62349609 8.46126953 4.93449219 8.23503906 4.22460938 8.00195312 C-0.8677849 6.2644302 -0.8677849 6.2644302 -2 4 C-1.0625 1.875 -1.0625 1.875 0 0 Z " fill="#FBFCFD" transform="translate(237,194)"/>
<path d="M0 0 C0 1.65 0 3.3 0 5 C-11.47572816 11 -11.47572816 11 -18 11 C-18.33 9.02 -18.66 7.04 -19 5 C-18.15695312 4.65066406 -17.31390625 4.30132812 -16.4453125 3.94140625 C-15.34960938 3.48636719 -14.25390625 3.03132813 -13.125 2.5625 C-12.03445313 2.11003906 -10.94390625 1.65757813 -9.8203125 1.19140625 C-5.70817993 -0.54571346 -4.40859218 -1.04414025 0 0 Z " fill="#FBFCFD" transform="translate(710,113)"/>
<path d="M0 0 C0.99 0.33 1.98 0.66 3 1 C6.38540224 1.30698862 9.77135062 1.50904595 13.1640625 1.71875 C16 2 16 2 17 3 C17.04080783 4.99958364 17.04254356 7.00045254 17 9 C9.96517526 9.23668569 3.8165735 8.7879537 -3 7 C-3.1875 4.625 -3.1875 4.625 -3 2 C-2.01 1.34 -1.02 0.68 0 0 Z " fill="#FBFCFD" transform="translate(290,204)"/>
<path d="M0 0 C1.4540625 0.0309375 1.4540625 0.0309375 2.9375 0.0625 C3.5975 1.3825 4.2575 2.7025 4.9375 4.0625 C2.47775158 7.75212263 1.33536948 7.76879182 -2.875 8.75 C-4.43154297 9.12705078 -4.43154297 9.12705078 -6.01953125 9.51171875 C-8.80165513 10.01528674 -11.24606152 10.24958837 -14.0625 10.0625 C-15.0625 9.0625 -15.0625 9.0625 -15.3125 6.625 C-15.23 5.779375 -15.1475 4.93375 -15.0625 4.0625 C-12.14743545 2.11912363 -11.23278308 1.78575333 -7.9375 1.5 C-4.09167127 1.06579353 -3.6253841 0.07398743 0 0 Z " fill="#FBFCFD" transform="translate(485.0625,192.9375)"/>
<path d="M0 0 C0.33 1.65 0.66 3.3 1 5 C-1.91086669 6.94057779 -4.04305699 7.75181737 -7.375 8.6875 C-8.77878906 9.09548828 -8.77878906 9.09548828 -10.2109375 9.51171875 C-13.15689166 10.02746703 -15.13515913 9.77611144 -18 9 C-18.33 7.68 -18.66 6.36 -19 5 C-13.40324584 0.07485634 -7.10090633 -0.24915461 0 0 Z " fill="#FBFCFD" transform="translate(539,180)"/>
<path d="M0 0 C5.72210596 1.86763181 11.37661751 3.85289032 17 6 C17 7.98 17 9.96 17 12 C14.27826413 13.05916608 13.15072462 13.05253196 10.34375 12.07421875 C9.4053125 11.61660156 8.466875 11.15898437 7.5 10.6875 C6.5615625 10.23761719 5.623125 9.78773438 4.65625 9.32421875 C3.7796875 8.88722656 2.903125 8.45023438 2 8 C1.2265625 7.61457031 0.453125 7.22914063 -0.34375 6.83203125 C-0.8903125 6.55746094 -1.436875 6.28289062 -2 6 C-1.34 4.02 -0.68 2.04 0 0 Z " fill="#FBFCFD" transform="translate(188,176)"/>
<path d="M0 0 C1.5 1.25 1.5 1.25 3 3 C3 4.32 3 5.64 3 7 C-9.18686919 12.87658639 -9.18686919 12.87658639 -14 13 C-16 11 -16 11 -16.1875 8.625 C-14.49465401 4.88291939 -12.07660511 4.3112763 -8.3671875 2.84765625 C-5.59033396 1.8533044 -2.81945334 0.8675241 0 0 Z " fill="#FBFCFD" transform="translate(658,130)"/>
<path d="M0 0 C3.63 1.32 7.26 2.64 11 4 C11 4.66 11 5.32 11 6 C12.65 6.33 14.3 6.66 16 7 C16.33 7.99 16.66 8.98 17 10 C16.01 11.485 16.01 11.485 15 13 C8.47934522 11.98114769 2.5110547 9.61662965 -3 6 C-1.125 1.125 -1.125 1.125 0 0 Z " fill="#FBFCFD" transform="translate(1150,87)"/>
<path d="M0 0 C3.43663599 0.64667882 6.7711662 1.44776006 10.125 2.4375 C11.39730469 2.80681641 11.39730469 2.80681641 12.6953125 3.18359375 C15 4 15 4 18 6 C17.66279245 8.52905666 17.41495397 9.67637562 15.3671875 11.2734375 C11.82658518 12.36015702 9.74701296 11.13534167 6.375 9.75 C5.22773437 9.29109375 4.08046875 8.8321875 2.8984375 8.359375 C0 7 0 7 -2 5 C-2 4.01 -2 3.02 -2 2 C-1.34 2 -0.68 2 0 2 C0 1.34 0 0.68 0 0 Z " fill="#FBFCFD" transform="translate(1125,78)"/>
<path d="M0 0 C5.81812771 -0.25296207 11.39552793 0.34017463 17 2 C19 4 19 4 19.125 6.625 C19.08375 7.40875 19.0425 8.1925 19 9 C17.52093108 9.02689216 16.04172517 9.04634621 14.5625 9.0625 C13.32693359 9.07990234 13.32693359 9.07990234 12.06640625 9.09765625 C10 9 10 9 9 8 C6.9720021 7.7746669 4.94325126 7.55232815 2.91015625 7.37890625 C1 7 1 7 -1 5 C-0.625 2.375 -0.625 2.375 0 0 Z " fill="#FBFCFD" transform="translate(1074,65)"/>
<path d="M0 0 C0 1.98 0 3.96 0 6 C-5.73310689 8.39748106 -10.80481527 9.58411954 -17 10 C-17.66 8.35 -18.32 6.7 -19 5 C-13.74484118 1.32138883 -6.37476273 -2.17890273 0 0 Z " fill="#FBFCFD" transform="translate(514,187)"/>
<path d="M0 0 C2.32114213 1.09104377 2.79116252 2.46115421 3.6953125 4.796875 C1.58205003 7.14567137 -0.1370317 8.33072162 -3.1171875 9.359375 C-3.81457031 9.60429687 -4.51195312 9.84921875 -5.23046875 10.1015625 C-5.91496094 10.33101562 -6.59945312 10.56046875 -7.3046875 10.796875 C-8.4596875 11.18875 -9.6146875 11.580625 -10.8046875 11.984375 C-11.6296875 12.2525 -12.4546875 12.520625 -13.3046875 12.796875 C-14.2946875 11.806875 -15.2846875 10.816875 -16.3046875 9.796875 C-14.81261464 5.56933522 -12.34810178 4.41484072 -8.4296875 2.484375 C-7.38039063 1.95199219 -6.33109375 1.41960937 -5.25 0.87109375 C-2.3046875 -0.203125 -2.3046875 -0.203125 0 0 Z " fill="#FBFCFD" transform="translate(610.3046875,151.203125)"/>
<path d="M0 0 C5.05816207 0.55503642 7.81252086 4.37472252 11 8 C13 10.75 13 10.75 14 13 C13 16 13 16 11.2578125 16.98046875 C9 17 9 17 6.4921875 15.05078125 C5.62851563 14.14714844 4.76484375 13.24351562 3.875 12.3125 C2.57175781 10.97638672 2.57175781 10.97638672 1.2421875 9.61328125 C-0.64104575 7.41836306 -1.89792562 5.64374024 -3 3 C-1.75 1.4375 -1.75 1.4375 0 0 Z " fill="#FBFCFD" transform="translate(1235,145)"/>
<path d="M0 0 C3.79366724 0.41012619 6.19316507 1.40107877 9 4 C9 4.66 9 5.32 9 6 C9.61875 6.28875 10.2375 6.5775 10.875 6.875 C13 8 13 8 15 10 C14.625 12.625 14.625 12.625 14 15 C10 15 10 15 8 14 C8 13.34 8 12.68 8 12 C7.443125 11.7525 6.88625 11.505 6.3125 11.25 C3.51259025 9.73653527 1.28798711 8.22443191 -1 6 C-1.375 3.3125 -1.375 3.3125 -1 1 C-0.67 0.67 -0.34 0.34 0 0 Z " fill="#FBFCFD" transform="translate(1215,128)"/>
<path d="M0 0 C1.4540625 0.0309375 1.4540625 0.0309375 2.9375 0.0625 C2.9375 2.0425 2.9375 4.0225 2.9375 6.0625 C-3.11272986 8.72807258 -8.45164524 10.57280705 -15.0625 11.0625 C-15.0625 8.7525 -15.0625 6.4425 -15.0625 4.0625 C-14.28003906 3.85753906 -13.49757813 3.65257813 -12.69140625 3.44140625 C-11.67949219 3.17199219 -10.66757812 2.90257813 -9.625 2.625 C-8.61566406 2.35816406 -7.60632813 2.09132813 -6.56640625 1.81640625 C-0.57248185 0.0116833 -0.57248185 0.0116833 0 0 Z " fill="#FBFCFD" transform="translate(731.0625,103.9375)"/>
<path d="M0 0 C2.33524782 2.25740623 4.18705073 4.2805761 6 7 C6 7.99 6 8.98 6 10 C6.66 10 7.32 10 8 10 C9.42944945 12.35438733 10.08661261 13.48032433 9.625 16.25 C9.41875 16.8275 9.2125 17.405 9 18 C7.68 18.33 6.36 18.66 5 19 C1 14.375 1 14.375 1 11 C0.34 11 -0.32 11 -1 11 C-4.03553801 5.65745311 -4.03553801 5.65745311 -3.875 2.6875 C-3 1 -3 1 0 0 Z " fill="#FBFCFD" transform="translate(16,22)"/>
<path d="M0 0 C2.0625 0.6875 2.0625 0.6875 4 2 C4.75 4.125 4.75 4.125 5 6 C5.66 6 6.32 6 7 6 C7.66 7.98 8.32 9.96 9 12 C9.66 12 10.32 12 11 12 C11 13.65 11 15.3 11 17 C9.35 17.33 7.7 17.66 6 18 C4.45970594 16.11741837 2.94394844 14.22186184 1.4375 12.3125 C0.99986328 11.78205078 0.56222656 11.25160156 0.11132812 10.70507812 C-1.94556037 8.06513462 -3.01966817 6.570377 -2.90234375 3.16796875 C-2 1 -2 1 0 0 Z " fill="#FBFCFD" transform="translate(1269,185)"/>
<path d="M0 0 C2.1875 -0.375 2.1875 -0.375 5 0 C7.08832653 1.82869674 8.38336791 3.69052559 10 6 C10 6.66 10 7.32 10 8 C10.66 8 11.32 8 12 8 C14.1519437 11.22791555 14.20086443 12.28400809 14 16 C12.3125 16.8125 12.3125 16.8125 10 17 C8.01623385 15.38166445 6.61163126 13.9504401 5 12 C4.1646875 11.02160156 4.1646875 11.02160156 3.3125 10.0234375 C0.05778584 6.00024916 0.05778584 6.00024916 -1 4 C-0.6640625 1.75390625 -0.6640625 1.75390625 0 0 Z " fill="#FBFCFD" transform="translate(1251,165)"/>
<path d="M0 0 C0 1.98 0 3.96 0 6 C-5.61201606 8.24480642 -11.07136283 9.83348574 -17 11 C-17.66 9.02 -18.32 7.04 -19 5 C-13.12869319 0.96347657 -7.07307798 -0.3536539 0 0 Z " fill="#FBFCFD" transform="translate(784,89)"/>
<path d="M0 0 C1.72863281 0.02707031 1.72863281 0.02707031 3.4921875 0.0546875 C4.36101563 0.07789062 5.22984375 0.10109375 6.125 0.125 C6.455 1.445 6.785 2.765 7.125 4.125 C1.33437187 7.93026991 -5.06878739 8.08739662 -11.875 8.125 C-12.535 7.795 -13.195 7.465 -13.875 7.125 C-13.545 5.475 -13.215 3.825 -12.875 2.125 C-8.41165816 0.40206865 -4.77298769 -0.09740791 0 0 Z " fill="#FBFCFD" transform="translate(879.875,66.875)"/>
<path d="M0 0 C0 2.31 0 4.62 0 7 C-2.62361013 7.52890546 -5.24848225 8.04842088 -7.875 8.5625 C-8.99455078 8.78969727 -8.99455078 8.78969727 -10.13671875 9.02148438 C-15.7734375 10.11328125 -15.7734375 10.11328125 -18 9 C-18 7.35 -18 5.7 -18 4 C-12.50312124 1.03343051 -6.25589769 -0.4036063 0 0 Z " fill="#FBFCFD" transform="translate(834,76)"/>
<path d="M0 0 C1.10021484 -0.01836914 1.10021484 -0.01836914 2.22265625 -0.03710938 C6.06063514 -0.04759566 7.85847074 0.00981383 11.125 2.1875 C11.125 3.5075 11.125 4.8275 11.125 6.1875 C4.195 6.1875 -2.735 6.1875 -9.875 6.1875 C-8.39686235 -1.20318824 -6.72775151 0.00585022 0 0 Z " fill="#FBFCFD" transform="translate(348.875,208.8125)"/>
<path d="M0 0 C1 1 1 1 1.125 3.5 C1 6 1 6 0 7 C-2.86267567 7.07325168 -5.700719 7.09238205 -8.5625 7.0625 C-9.36880859 7.05798828 -10.17511719 7.05347656 -11.00585938 7.04882812 C-13.00393756 7.03700518 -15.00197783 7.01906914 -17 7 C-17.38218767 5.34385343 -17.71395102 3.67542976 -18 2 C-14.59138263 -1.40861737 -4.54041217 -0.16215758 0 0 Z " fill="#FBFCFD" transform="translate(988,57)"/>
<path d="M0 0 C2.86688248 0.09096556 5.70300515 0.23767988 8.5625 0.4375 C9.36880859 0.48970703 10.17511719 0.54191406 11.00585938 0.59570312 C13.00421738 0.72577376 15.00215386 0.86229056 17 1 C17.042721 2.66611905 17.04063832 4.33382885 17 6 C14.95733571 8.04266429 10.86308566 7.18507944 8.0625 7.1875 C7.32064453 7.19974609 6.57878906 7.21199219 5.81445312 7.22460938 C3.87486371 7.22988478 1.9357629 7.12188902 0 7 C-0.66 6.34 -1.32 5.68 -2 5 C-1.46428571 1.46428571 -1.46428571 1.46428571 0 0 Z " fill="#FBFCFD" transform="translate(998,57)"/>
</svg>
