<?xml version="1.0" encoding="UTF-8"?>
<!-- Generator: visioncortex VTracer 0.6.2 -->
<svg version="1.1" xmlns="http://www.w3.org/2000/svg" width="1280" height="447">
<path d="M0 0 C1.23363281 0.00257813 2.46726562 0.00515625 3.73828125 0.0078125 C5.56939453 0.00394531 5.56939453 0.00394531 7.4375 0 C10.7672874 0.12239219 13.81303374 0.34615977 17.05078125 1.1328125 C18.55078125 3.5078125 18.55078125 3.5078125 19.05078125 6.1328125 C18.06078125 7.6178125 18.06078125 7.6178125 17.05078125 9.1328125 C15.11132812 9.50512695 15.11132812 9.50512695 12.76953125 9.49609375 C11.92777344 9.49544922 11.08601563 9.49480469 10.21875 9.49414062 C9.33832031 9.47802734 8.45789063 9.46191406 7.55078125 9.4453125 C6.23013672 9.45014648 6.23013672 9.45014648 4.8828125 9.45507812 C-1.68224843 9.39978282 -1.68224843 9.39978282 -3.94921875 7.1328125 C-4.13671875 4.0703125 -4.13671875 4.0703125 -3.94921875 1.1328125 C-2.94921875 0.1328125 -2.94921875 0.1328125 0 0 Z " fill="#FBFCFD" transform="translate(450.94921875,199.8671875)"/>
<path d="M0 0 C0.78052734 -0.01611328 1.56105469 -0.03222656 2.36523438 -0.04882812 C4.62890625 -0.05078125 4.62890625 -0.05078125 8.4375 0.3125 C10.4375 3.3125 10.4375 3.3125 10.125 5.9375 C9.4375 8.3125 9.4375 8.3125 8.4375 9.3125 C7.03401265 9.41110131 5.62569523 9.44328937 4.21875 9.4453125 C2.94451172 9.44724609 2.94451172 9.44724609 1.64453125 9.44921875 C0.30455078 9.44341797 0.30455078 9.44341797 -1.0625 9.4375 C-1.95582031 9.44136719 -2.84914063 9.44523438 -3.76953125 9.44921875 C-4.61902344 9.44792969 -5.46851563 9.44664062 -6.34375 9.4453125 C-7.12814453 9.44418457 -7.91253906 9.44305664 -8.72070312 9.44189453 C-10.5625 9.3125 -10.5625 9.3125 -11.5625 8.3125 C-11.8125 5.375 -11.8125 5.375 -11.5625 2.3125 C-7.70570296 -0.25869802 -4.4691748 -0.01854429 0 0 Z " fill="#FBFCFD" transform="translate(398.5625,197.6875)"/>
<path d="M0 0 C2.39614126 -0.05425226 4.79103853 -0.09379027 7.1875 -0.125 C8.19780273 -0.15013672 8.19780273 -0.15013672 9.22851562 -0.17578125 C13.25752548 -0.21508866 16.44646082 0.02506518 20 2 C20.875 4.5 20.875 4.5 21 7 C20.67 7.66 20.34 8.32 20 9 C17.08234109 9.10806144 14.16868875 9.18732877 11.25 9.25 C10.425 9.28351563 9.6 9.31703125 8.75 9.3515625 C2.57702246 9.45112665 2.57702246 9.45112665 -0.578125 6.984375 C-1.04734375 6.32953125 -1.5165625 5.6746875 -2 5 C-1.34 3.35 -0.68 1.7 0 0 Z " fill="#FBFCFD" transform="translate(886,308)"/>
<path d="M0 0 C1.23556641 0.01740234 1.23556641 0.01740234 2.49609375 0.03515625 C3.32238281 0.04417969 4.14867187 0.05320313 5 0.0625 C5.63808594 0.07410156 6.27617187 0.08570313 6.93359375 0.09765625 C7.59359375 1.74765625 8.25359375 3.39765625 8.93359375 5.09765625 C4.51620489 8.43763319 1.56932172 9.5451339 -4.06640625 10.09765625 C-4.39640625 10.42765625 -4.72640625 10.75765625 -5.06640625 11.09765625 C-6.56378749 11.19556195 -8.06583517 11.22740489 -9.56640625 11.22265625 C-10.38109375 11.22523438 -11.19578125 11.2278125 -12.03515625 11.23046875 C-14.06640625 11.09765625 -14.06640625 11.09765625 -15.06640625 10.09765625 C-15.44140625 7.72265625 -15.44140625 7.72265625 -15.06640625 5.09765625 C-11.40055118 1.98723377 -7.73500906 1.63634119 -3.06640625 1.09765625 C-2.06640625 0.09765625 -2.06640625 0.09765625 0 0 Z " fill="#FBFCFD" transform="translate(281.06640625,212.90234375)"/>
<path d="M0 0 C1.37478516 0.01740234 1.37478516 0.01740234 2.77734375 0.03515625 C3.69644531 0.04417969 4.61554687 0.05320312 5.5625 0.0625 C6.27277344 0.07410156 6.98304687 0.08570313 7.71484375 0.09765625 C8.40234375 2.41015625 8.40234375 2.41015625 8.71484375 5.09765625 C6.99277195 7.60415933 5.81263407 8.07406997 2.83203125 8.79296875 C1.76210938 8.93476563 0.6921875 9.0765625 -0.41015625 9.22265625 C-4.16437688 9.43861958 -4.16437688 9.43861958 -7.28515625 11.09765625 C-10.15720949 11.39997764 -11.72427046 11.47158011 -14.16015625 9.84765625 C-15.28515625 8.09765625 -15.28515625 8.09765625 -15.09765625 6.03515625 C-14.28515625 4.09765625 -14.28515625 4.09765625 -12.28515625 2.09765625 C-10.15625 1.71875 -10.15625 1.71875 -7.72265625 1.53515625 C-4.7122285 1.29913871 -2.7670851 0.1182515 0 0 Z " fill="#FBFCFD" transform="translate(1018.28515625,300.90234375)"/>
<path d="M0 0 C1.9609375 0.3046875 1.9609375 0.3046875 4.375 0.875 C5.16648437 1.05804688 5.95796875 1.24109375 6.7734375 1.4296875 C8.53566943 1.8810662 10.27422954 2.42474318 12 3 C12 3.66 12 4.32 12 5 C13.7015625 4.9690625 13.7015625 4.9690625 15.4375 4.9375 C19 5 19 5 20 6 C20.1875 8.9375 20.1875 8.9375 20 12 C19.34 12.66 18.68 13.32 18 14 C13.98812151 13.54555713 10.15912765 12.19302477 6.3125 11 C5.17425781 10.649375 4.03601563 10.29875 2.86328125 9.9375 C0 9 0 9 -2 8 C-1.125 1.125 -1.125 1.125 0 0 Z " fill="#FBFCFD" transform="translate(627,233)"/>
<path d="M0 0 C2.9375 0.1875 2.9375 0.1875 3.9375 1.1875 C6.41261803 1.72400099 8.90031184 2.15142114 11.39453125 2.58984375 C13.84130998 3.16489313 15.75067927 3.96920127 17.9375 5.1875 C17.980221 6.85361905 17.97813832 8.52132885 17.9375 10.1875 C16.35321031 11.77178969 14.75894439 11.39592692 12.5625 11.4375 C7.44424421 11.40057175 -1.2324252 11.0175748 -5.0625 7.1875 C-5.25 4.75 -5.25 4.75 -5.0625 2.1875 C-3.0625 0.1875 -3.0625 0.1875 0 0 Z " fill="#FBFCFD" transform="translate(571.0625,217.8125)"/>
<path d="M0 0 C3.94000061 0.42981825 6.77234841 1.65998195 10.31640625 3.36328125 C12.54706022 4.47260053 12.54706022 4.47260053 15.4375 5.4375 C16.0975 5.746875 16.7575 6.05625 17.4375 6.375 C17.7675 7.365 18.0975 8.355 18.4375 9.375 C17 12.0625 17 12.0625 15.4375 14.375 C1.24481607 10.46386372 1.24481607 10.46386372 -3.5625 7.375 C-4.75 4.75 -4.75 4.75 -4.5625 2.375 C-2.5625 0.375 -2.5625 0.375 0 0 Z " fill="#FBFCFD" transform="translate(657.5625,242.625)"/>
<path d="M0 0 C1.670625 0.061875 1.670625 0.061875 3.375 0.125 C4.125 2.375 4.125 2.375 4.375 5.125 C1.64985223 8.40166578 -1.39249147 10.31806893 -5.125 12.3125 C-6.0634375 12.82167969 -7.001875 13.33085937 -7.96875 13.85546875 C-10.22772546 14.93512614 -12.18166885 15.6467064 -14.625 16.125 C-14.625 15.465 -14.625 14.805 -14.625 14.125 C-15.615 13.795 -16.605 13.465 -17.625 13.125 C-17.46484375 10.82421875 -17.46484375 10.82421875 -16.625 8.125 C-14.19140625 6.39453125 -14.19140625 6.39453125 -11.1875 4.9375 C-1.28491784 0.04430751 -1.28491784 0.04430751 0 0 Z " fill="#FBFCFD" transform="translate(172.625,257.875)"/>
<path d="M0 0 C4.43031788 -0.55378973 7.15018105 0.88299605 10.93359375 2.921875 C12.90226193 3.94900623 14.86801853 4.76360366 16.9375 5.5625 C17.948125 6.036875 18.95875 6.51125 20 7 C20.33 7.99 20.66 8.98 21 10 C19.5625 12.1875 19.5625 12.1875 18 14 C13.39607623 13.45191384 10.09205997 12.13128124 6 10 C4.948125 9.67 3.89625 9.34 2.8125 9 C0.0488128 8.01735566 -1.25851973 7.32197369 -3 5 C-3 4.34 -3 3.68 -3 3 C-2.34 3 -1.68 3 -1 3 C-0.67 2.01 -0.34 1.02 0 0 Z " fill="#FBFCFD" transform="translate(684,253)"/>
<path d="M0 0 C2 2 2 2 2 5 C1.34 5 0.68 5 0 5 C0 5.66 0 6.32 0 7 C-2.4609638 8.2304819 -4.92227585 9.46008674 -7.38671875 10.68359375 C-9.42320862 11.70944888 -11.43565366 12.78308381 -13.4375 13.875 C-16 15 -16 15 -19 14 C-19.33 11.69 -19.66 9.38 -20 7 C-16.55930376 4.70620251 -15.27709699 4 -11 4 C-11 3.34 -11 2.68 -11 2 C-6.93901493 -0.36103783 -4.54926865 -1.64279146 0 0 Z " fill="#FBFCFD" transform="translate(202,244)"/>
<path d="M0 0 C2.31 0 4.62 0 7 0 C7.38133299 1.9914056 7.71325582 3.99279077 8 6 C7.67 6.33 7.34 6.66 7 7 C6.67708203 8.36799796 6.39165725 9.74493176 6.125 11.125 C5.22301609 15.39575714 3.84755058 19.05296012 2 23 C-0.96175123 22.38722388 -2.38058783 21.74627478 -5 20 C-4.35737498 17.04093596 -3.7110539 14.08276484 -3.0625 11.125 C-2.78889648 9.86236328 -2.78889648 9.86236328 -2.50976562 8.57421875 C-2.33251953 7.76855469 -2.15527344 6.96289062 -1.97265625 6.1328125 C-1.81031494 5.38918457 -1.64797363 4.64555664 -1.48071289 3.87939453 C-1 2 -1 2 0 0 Z " fill="#FBFCFD" transform="translate(1270,30)"/>
<path d="M0 0 C1.65 1.32 3.3 2.64 5 4 C4.375 6.375 4.375 6.375 3 9 C0.25 10.125 0.25 10.125 -3 11 C-4.485 11.7734375 -4.485 11.7734375 -6 12.5625 C-9.16740831 14.08021648 -11.48255737 14.92353386 -15 15 C-17.375 13.0625 -17.375 13.0625 -19 11 C-18 8 -18 8 -15.92578125 6.68359375 C-11.34252812 4.49815616 -6.87694688 2.46308406 -2 1 C-1.34 0.67 -0.68 0.34 0 0 Z " fill="#FBFCFD" transform="translate(227,230)"/>
<path d="M0 0 C0.33 0.33 0.66 0.66 1 1 C2.216875 1.103125 3.43375 1.20625 4.6875 1.3125 C9.10052492 1.78958378 11.52314099 3.30543427 15 6 C14 8.5 14 8.5 12 11 C9.27238255 11.58530124 6.73468533 11.52378046 4 11 C3.01 10.34 2.02 9.68 1 9 C-1.27538323 8.33386665 -1.27538323 8.33386665 -3.6875 7.875 C-4.89986328 7.62363281 -4.89986328 7.62363281 -6.13671875 7.3671875 C-6.75160156 7.24601563 -7.36648438 7.12484375 -8 7 C-8.6875 4.6875 -8.6875 4.6875 -9 2 C-6.7424563 -1.98390065 -3.99973386 -1.04340883 0 0 Z " fill="#FBFCFD" transform="translate(604,226)"/>
<path d="M0 0 C0.5775 0.20625 1.155 0.4125 1.75 0.625 C2.375 2.9375 2.375 2.9375 2.75 5.625 C0.50774485 8.98838273 -0.48819127 9.16509037 -4.25 10.08203125 C-6.38412351 10.66141244 -8.33631787 11.45918797 -10.375 12.3125 C-13.68059963 13.59872554 -15.8021646 13.81019342 -19.25 12.625 C-19.25 10.315 -19.25 8.005 -19.25 5.625 C-18.35796875 5.35945312 -17.4659375 5.09390625 -16.546875 4.8203125 C-15.37640625 4.46710938 -14.2059375 4.11390625 -13 3.75 C-11.83984375 3.40195313 -10.6796875 3.05390625 -9.484375 2.6953125 C-6.35179573 1.74779015 -6.35179573 1.74779015 -3.96875 0.46875 C-2.25 -0.375 -2.25 -0.375 0 0 Z " fill="#FBFCFD" transform="translate(257.25,220.375)"/>
<path d="M0 0 C0.77915771 0.00410889 1.55831543 0.00821777 2.36108398 0.01245117 C3.20735352 0.01438477 4.05362305 0.01631836 4.92553711 0.01831055 C5.81047852 0.03055664 6.69541992 0.04280273 7.60717773 0.05541992 C8.49598633 0.05606445 9.38479492 0.05670898 10.30053711 0.05737305 C16.90446676 0.10270895 16.90446676 0.10270895 18.04467773 1.24291992 C18.08531606 2.90909107 18.08739874 4.57680087 18.04467773 6.24291992 C10.96912275 9.24467052 4.67419329 9.59147647 -2.95532227 9.24291992 C-3.58032227 5.86791992 -3.58032227 5.86791992 -3.95532227 2.24291992 C-1.95532227 0.24291992 -1.95532227 0.24291992 0 0 Z " fill="#FBFCFD" transform="translate(359.955322265625,199.757080078125)"/>
<path d="M0 0 C2.4375 0.75 2.4375 0.75 5 2 C6.32284898 4.92916561 6.04059132 5.87822605 5 9 C4.34 9 3.68 9 3 9 C2.88785156 9.56203125 2.77570312 10.1240625 2.66015625 10.703125 C1.90942661 13.31513108 0.78832624 15.39471322 -0.5625 17.75 C-1.01753906 18.54921875 -1.47257812 19.3484375 -1.94140625 20.171875 C-2.29074219 20.77515625 -2.64007813 21.3784375 -3 22 C-5.375 22.125 -5.375 22.125 -8 22 C-8.66 21.34 -9.32 20.68 -10 20 C-9.86499678 14.32986478 -7.08496434 10.51983148 -4 6 C-3.22892091 4.83349574 -2.45805964 3.66684745 -1.6875 2.5 C-1.130625 1.675 -0.57375 0.85 0 0 Z " fill="#FBFCFD" transform="translate(23,406)"/>
<path d="M0 0 C3.16115776 1.36983503 3.9927092 1.9890638 6 5 C4.1231917 9.12897826 2.23285111 11.86511407 -1 15 C-1.639375 16.0725 -2.27875 17.145 -2.9375 18.25 C-3.618125 19.1575 -4.29875 20.065 -5 21 C-7.75 21.375 -7.75 21.375 -10 21 C-10.33 20.01 -10.66 19.02 -11 18 C-11.66 18 -12.32 18 -13 18 C-13 17.34 -13 16.68 -13 16 C-12.34 16 -11.68 16 -11 16 C-11 15.01 -11 14.02 -11 13 C-9.69026002 11.6434836 -8.35197858 10.31442362 -7 9 C-6.29875 7.9275 -5.5975 6.855 -4.875 5.75 C-3.946875 4.38875 -3.946875 4.38875 -3 3 C-2.34 3 -1.68 3 -1 3 C-0.67 2.01 -0.34 1.02 0 0 Z " fill="#FBFCFD" transform="translate(58,356)"/>
<path d="M0 0 C2.171875 0.9140625 2.171875 0.9140625 3.171875 1.9140625 C3.671875 4.1015625 3.671875 4.1015625 3.171875 6.9140625 C1.58582644 8.61627237 -0.12117142 9.99662704 -1.953125 11.4296875 C-4.05201067 13.02679009 -4.05201067 13.02679009 -6.515625 15.6640625 C-8.59116507 17.68350689 -10.17463871 18.83301253 -12.828125 19.9140625 C-12.828125 19.2540625 -12.828125 18.5940625 -12.828125 17.9140625 C-13.818125 17.5840625 -14.808125 17.2540625 -15.828125 16.9140625 C-15.47435392 11.62715021 -12.65965181 9.07795208 -9.078125 5.5390625 C-8.5521875 4.98089844 -8.02625 4.42273438 -7.484375 3.84765625 C-3.53894758 -0.10753708 -3.53894758 -0.10753708 0 0 Z " fill="#FBFCFD" transform="translate(100.828125,312.0859375)"/>
<path d="M0 0 C3.875 1.875 3.875 1.875 5 3 C5.43205821 7.13642615 4.59687978 9.17024886 2.1875 12.5 C1.64222656 13.27214844 1.09695313 14.04429687 0.53515625 14.83984375 C-0.22474609 15.90912109 -0.22474609 15.90912109 -1 17 C-2.01488468 18.65764498 -3.02402398 20.31915242 -4 22 C-5.98 21.67 -7.96 21.34 -10 21 C-10.78365344 18.72931029 -11.18431736 17.48706309 -10.3190918 15.20068359 C-9.76475464 14.30857178 -9.76475464 14.30857178 -9.19921875 13.3984375 C-8.79896484 12.74359375 -8.39871094 12.08875 -7.98632812 11.4140625 C-7.55771484 10.74117187 -7.12910156 10.06828125 -6.6875 9.375 C-6.27048828 8.694375 -5.85347656 8.01375 -5.42382812 7.3125 C-3.77486963 4.65102313 -2.22087061 2.22087061 0 0 Z " fill="#FBFCFD" transform="translate(1228,140)"/>
<path d="M0 0 C1.06831055 0.11214844 1.06831055 0.11214844 2.15820312 0.2265625 C6.51193883 0.7581935 9.6138139 1.69435807 13.1875 4.25 C12.8125 6.6875 12.8125 6.6875 12.1875 9.25 C9.47946778 10.60401611 7.62267683 10.16421523 4.625 9.875 C3.13806641 9.73964844 3.13806641 9.73964844 1.62109375 9.6015625 C-0.8125 9.25 -0.8125 9.25 -1.8125 8.25 C-2.946875 8.105625 -4.08125 7.96125 -5.25 7.8125 C-8.8125 7.25 -8.8125 7.25 -10.8125 5.25 C-10.5625 2.6875 -10.5625 2.6875 -9.8125 0.25 C-6.63903746 -1.33673127 -3.41516979 -0.42575581 0 0 Z " fill="#FBFCFD" transform="translate(834.8125,299.75)"/>
<path d="M0 0 C3.16115776 1.36983503 3.9927092 1.9890638 6 5 C2.46843481 8.68881485 -1.18534092 11.77382244 -5.3125 14.8125 C-5.86228516 15.21919922 -6.41207031 15.62589844 -6.97851562 16.04492188 C-8.31625547 17.03368611 -9.65773623 18.01738585 -11 19 C-12.65 17.68 -14.3 16.36 -16 15 C-15.34 13.35 -14.68 11.7 -14 10 C-13.01 10 -12.02 10 -11 10 C-11 9.34 -11 8.68 -11 8 C-9.217871 6.55925285 -7.37339724 5.19489351 -5.5 3.875 C-4.4790625 3.15054687 -3.458125 2.42609375 -2.40625 1.6796875 C-1.6121875 1.12539063 -0.818125 0.57109375 0 0 Z " fill="#FBFCFD" transform="translate(146,273)"/>
<path d="M0 0 C5.42425958 0.04536418 10.71269877 0.48678338 15.5 3.25 C15.83 4.24 16.16 5.23 16.5 6.25 C15.07421875 8.29296875 15.07421875 8.29296875 12.5 10.25 C9.37533192 10.49774753 6.40136903 10.03080457 3.3125 9.5625 C2.48041016 9.45744141 1.64832031 9.35238281 0.79101562 9.24414062 C-5.31731673 8.43268327 -5.31731673 8.43268327 -6.5 7.25 C-6.625 4.25 -6.625 4.25 -6.5 1.25 C-4.74858382 -0.50141618 -2.3790046 0.03604552 0 0 Z " fill="#FBFCFD" transform="translate(483.5,202.75)"/>
<path d="M0 0 C1.65 1.32 3.3 2.64 5 4 C4.36874053 7.63605457 2.81348776 10.01360178 0.6875 13 C-0.20388672 14.2684375 -0.20388672 14.2684375 -1.11328125 15.5625 C-2.93008387 17.90967357 -4.85429556 19.9537653 -7 22 C-9.475 21.01 -9.475 21.01 -12 20 C-12.54808484 16.2547536 -11.98800895 14.9815267 -9.8828125 11.73828125 C-8.97576464 10.58662136 -8.05602592 9.44486348 -7.125 8.3125 C-6.66480469 7.73177734 -6.20460938 7.15105469 -5.73046875 6.55273438 C-3.90612271 4.26569187 -2.06977239 2.06977239 0 0 Z " fill="#FBFCFD" transform="translate(1213,165)"/>
<path d="M0 0 C0.66 0.33 1.32 0.66 2 1 C2 1.66 2 2.32 2 3 C2.99 3.33 3.98 3.66 5 4 C4.67 4.99 4.34 5.98 4 7 C3.34 7 2.68 7 2 7 C1.79375 7.680625 1.5875 8.36125 1.375 9.0625 C-0.90164053 13.92623204 -4.01960859 17.84860965 -8.6875 20.5625 C-11 21 -11 21 -14 19 C-14.60386787 16.28259456 -14.44787833 14.70499367 -12.9453125 12.33984375 C-11.625 10.6875 -11.625 10.6875 -9 8 C-8.34 8 -7.68 8 -7 8 C-6.773125 7.4225 -6.54625 6.845 -6.3125 6.25 C-4.66961977 3.4336339 -2.60466773 1.91922886 0 0 Z " fill="#FBFCFD" transform="translate(79,333)"/>
<path d="M0 0 C3.10632548 0.24898882 6.20924688 0.52794177 9.3125 0.8125 C10.63411133 0.91788086 10.63411133 0.91788086 11.98242188 1.02539062 C13.25375977 1.14624023 13.25375977 1.14624023 14.55078125 1.26953125 C15.33106689 1.33760986 16.11135254 1.40568848 16.9152832 1.47583008 C19.39678671 2.0997659 20.37554081 3.06655277 22 5 C21.3125 7.4375 21.3125 7.4375 20 10 C15.44829777 11.65516445 11.2701962 10.52490715 6.6875 9.5625 C5.94693359 9.41490234 5.20636719 9.26730469 4.44335938 9.11523438 C2.62718357 8.75199921 0.81333589 8.37715682 -1 8 C-1.625 5.6875 -1.625 5.6875 -2 3 C-1.34 2.01 -0.68 1.02 0 0 Z " fill="#FBFCFD" transform="translate(856,304)"/>
<path d="M0 0 C1.41623216 -0.05447047 2.83308191 -0.09300508 4.25 -0.125 C5.03890625 -0.14820313 5.8278125 -0.17140625 6.640625 -0.1953125 C9.23760996 0.0196697 10.7206182 0.78893452 13 2 C15.33006911 2.35543427 17.66327016 2.6913753 20 3 C21 4 21 4 21.125 7 C21 10 21 10 20 11 C16.5 11.125 16.5 11.125 13 11 C12.67 10.67 12.34 10.34 12 10 C10.58479382 9.89473673 9.16759312 9.81571624 7.75 9.75 C3.88331274 9.38614905 3.09011866 9.07540541 -0.0625 6.4375 C-0.701875 5.633125 -1.34125 4.82875 -2 4 C-1.34 2.68 -0.68 1.36 0 0 Z " fill="#FBFCFD" transform="translate(797,293)"/>
<path d="M0 0 C4.89927711 -0.45930723 8.56079726 1.19834916 13 3 C14.49842056 3.56669398 15.99836802 4.1293713 17.5 4.6875 C18.655 5.120625 19.81 5.55375 21 6 C20.67 8.31 20.34 10.62 20 13 C15.10072289 13.45930723 11.43920274 11.80165084 7 10 C5.50157944 9.43330602 4.00163198 8.8706287 2.5 8.3125 C0.7675 7.6628125 0.7675 7.6628125 -1 7 C-0.67 4.69 -0.34 2.38 0 0 Z " fill="#FBFCFD" transform="translate(739,276)"/>
<path d="M0 0 C0.33 1.65 0.66 3.3 1 5 C0.01 5.33 -0.98 5.66 -2 6 C-2 6.66 -2 7.32 -2 8 C-2.99 8.4125 -3.98 8.825 -5 9.25 C-9.0898505 10.99801381 -13.03645482 12.98345947 -17 15 C-18.32 14.01 -19.64 13.02 -21 12 C-20.8125 9.6875 -20.8125 9.6875 -20 7 C-16.68035674 4.39811744 -15.30683959 4 -11 4 C-11 3.34 -11 2.68 -11 2 C-6.89657963 -0.38570952 -4.61380251 -1.49270081 0 0 Z " fill="#FBFCFD" transform="translate(1109,269)"/>
<path d="M0 0 C5.18481278 1.11103131 9.48831748 2.55042176 14.140625 5.09765625 C16.07516484 6.03647705 17.90265719 6.54990652 20 7 C20 8.98 20 10.96 20 13 C17.91015625 14.171875 17.91015625 14.171875 15 15 C11.80859375 13.953125 11.80859375 13.953125 8.4375 12.25 C7.32246094 11.69828125 6.20742188 11.1465625 5.05859375 10.578125 C4.04925781 10.05734375 3.03992188 9.5365625 2 9 C0.66710041 8.33246655 -0.66601499 7.66536172 -2 7 C-1.34 4.69 -0.68 2.38 0 0 Z " fill="#FBFCFD" transform="translate(712,264)"/>
<path d="M0 0 C2.41527102 1.20763551 2.9183747 2.46621798 3.875 4.9375 C2.25905168 6.97869788 0.5893618 8.97822937 -1.125 10.9375 C-1.785 10.9375 -2.445 10.9375 -3.125 10.9375 C-3.125 11.5975 -3.125 12.2575 -3.125 12.9375 C-4.875 14.4453125 -4.875 14.4453125 -7.125 16.0625 C-7.8675 16.60132813 -8.61 17.14015625 -9.375 17.6953125 C-9.9525 18.10523438 -10.53 18.51515625 -11.125 18.9375 C-13.0625 18.25 -13.0625 18.25 -15.125 16.9375 C-15.875 14.3125 -15.875 14.3125 -16.125 11.9375 C-14.83872289 10.76489389 -13.54580217 9.5995717 -12.25 8.4375 C-11.53070312 7.7878125 -10.81140625 7.138125 -10.0703125 6.46875 C-8.125 4.9375 -8.125 4.9375 -6.125 4.9375 C-6.125 4.2775 -6.125 3.6175 -6.125 2.9375 C-4.05241268 0.93893366 -2.93377168 -0.0862874 0 0 Z " fill="#FBFCFD" transform="translate(1155.125,233.0625)"/>
<path d="M0 0 C2.86724686 0.57344937 3.8614515 0.8614515 6 3 C5.68469004 6.62221926 3.80453465 8.80773394 1.5625 11.5625 C-0.41127579 14.00602618 -2.25512347 16.38268521 -4 19 C-7 19.8125 -7 19.8125 -10 20 C-10.66 19.34 -11.32 18.68 -12 18 C-11.6730244 15.38419521 -11.17960932 13.35921863 -10 11 C-9.34 11 -8.68 11 -8 11 C-7.67 10.01 -7.34 9.02 -7 8 C-6.34 8 -5.68 8 -5 8 C-4.5978125 6.7934375 -4.5978125 6.7934375 -4.1875 5.5625 C-3.795625 4.716875 -3.40375 3.87125 -3 3 C-2.01 2.67 -1.02 2.34 0 2 C0 1.34 0 0.68 0 0 Z " fill="#FBFCFD" transform="translate(1194,190)"/>
<path d="M0 0 C2.86724686 0.57344937 3.8614515 0.8614515 6 3 C6 3.99 6 4.98 6 6 C5.34 6 4.68 6 4 6 C3.7525 6.680625 3.505 7.36125 3.25 8.0625 C1.75802092 11.56865083 -0.06835511 14.71620368 -2 18 C-2.66 18 -3.32 18 -4 18 C-4.33 18.99 -4.66 19.98 -5 21 C-6.65 21 -8.3 21 -10 21 C-11.125 15.25 -11.125 15.25 -10 13 C-9.34 13 -8.68 13 -8 13 C-7.90847656 12.43796875 -7.81695312 11.8759375 -7.72265625 11.296875 C-6.81299986 8.40564279 -5.3388903 6.60080982 -3.4375 4.25 C-2.79683594 3.45078125 -2.15617187 2.6515625 -1.49609375 1.828125 C-1.00238281 1.22484375 -0.50867187 0.6215625 0 0 Z " fill="#FBFCFD" transform="translate(40,381)"/>
<path d="M0 0 C0.79953138 3.28696233 1.09658936 4.71023192 0 8 C-3.10268097 9.03422699 -5.68306652 9.27472401 -8.9375 9.5 C-13.14896531 9.77341413 -13.14896531 9.77341413 -17.25390625 10.65625 C-17.83011719 10.7696875 -18.40632812 10.883125 -19 11 C-21 9 -21 9 -21.1875 5.9375 C-21 3 -21 3 -20 2 C-13.33476461 0.15527829 -6.88186004 -0.2635606 0 0 Z " fill="#FBFCFD" transform="translate(996,306)"/>
<path d="M0 0 C2.31 0 4.62 0 7 0 C7.84205836 2.37922307 8.14174203 3.59929592 7.28735352 6.01464844 C6.90506592 6.7059082 6.52277832 7.39716797 6.12890625 8.109375 C5.71962891 8.86347656 5.31035156 9.61757812 4.88867188 10.39453125 C4.45103516 11.17183594 4.01339844 11.94914062 3.5625 12.75 C3.12873047 13.54277344 2.69496094 14.33554688 2.24804688 15.15234375 C1.17607546 17.10780809 0.09321878 19.05635908 -1 21 C-5.75 20.25 -5.75 20.25 -8 18 C-8 17.01 -8 16.02 -8 15 C-7.34 15 -6.68 15 -6 15 C-5.87625 14.278125 -5.7525 13.55625 -5.625 12.8125 C-5.0095069 10.04278106 -4.11555626 7.6029646 -3 5 C-2.34 5 -1.68 5 -1 5 C-0.67 3.35 -0.34 1.7 0 0 Z " fill="#FBFCFD" transform="translate(1240,115)"/>
<path d="M0 0 C0.70511719 0.25394531 1.41023438 0.50789063 2.13671875 0.76953125 C2.88671875 3.01953125 2.88671875 3.01953125 3.13671875 5.76953125 C1.32421875 8.08203125 1.32421875 8.08203125 -0.86328125 9.76953125 C-1.52328125 9.76953125 -2.18328125 9.76953125 -2.86328125 9.76953125 C-2.86328125 10.42953125 -2.86328125 11.08953125 -2.86328125 11.76953125 C-5.28283934 14.14105841 -7.9178967 16.09812079 -10.86328125 17.76953125 C-13.86328125 17.64453125 -13.86328125 17.64453125 -15.86328125 16.76953125 C-16.19328125 15.11953125 -16.52328125 13.46953125 -16.86328125 11.76953125 C-15.87328125 11.43953125 -14.88328125 11.10953125 -13.86328125 10.76953125 C-13.86328125 10.10953125 -13.86328125 9.44953125 -13.86328125 8.76953125 C-11.6328125 6.5703125 -11.6328125 6.5703125 -8.67578125 4.08203125 C-7.23138672 2.83873047 -7.23138672 2.83873047 -5.7578125 1.5703125 C-2.86328125 -0.23046875 -2.86328125 -0.23046875 0 0 Z " fill="#FBFCFD" transform="translate(123.86328125,292.23046875)"/>
<path d="M0 0 C2.03125 0.0859375 2.03125 0.0859375 4.5 0.375 C5.3146875 0.46523438 6.129375 0.55546875 6.96875 0.6484375 C9 1 9 1 10 2 C12.28357104 2.45135161 14.573392 2.83453065 16.87109375 3.20703125 C19 4 19 4 20.33984375 5.93359375 C21 8 21 8 20.125 10.25 C19.75375 10.8275 19.3825 11.405 19 12 C11.59227282 12.58482057 4.06766063 10.24736244 -2 6 C-1.125 1.125 -1.125 1.125 0 0 Z " fill="#FBFCFD" transform="translate(768,285)"/>
<path d="M0 0 C2.0625 0.4375 2.0625 0.4375 4 1 C4.33 2.98 4.66 4.96 5 7 C-2.36431412 11.44927312 -8.29659924 14.99452934 -17 13 C-17.3125 10.6875 -17.3125 10.6875 -17 8 C-13.63230327 5.60668207 -10.13962914 4.21008892 -6.25 2.875 C-2.85369499 1.89797747 -2.85369499 1.89797747 0 0 Z " fill="#FBFCFD" transform="translate(1078,281)"/>
<path d="M0 0 C1.1446875 0.1546875 1.1446875 0.1546875 2.3125 0.3125 C3.94595096 5.21285289 2.02886522 8.66464375 0.3125 13.3125 C0.08304688 14.08078125 -0.14640625 14.8490625 -0.3828125 15.640625 C-1.0625 17.8125 -1.0625 17.8125 -2.6875 21.3125 C-5.1875 22.4375 -5.1875 22.4375 -7.6875 22.3125 C-8.6775 21.6525 -9.6675 20.9925 -10.6875 20.3125 C-9.6445996 14.35306912 -6.82385336 0.79347132 0 0 Z " fill="#FBFCFD" transform="translate(1255.6875,86.6875)"/>
<path d="M0 0 C0.33 1.98 0.66 3.96 1 6 C-5.00835624 10.13074491 -11.832015 11.2832015 -19 12 C-19.66 11.67 -20.32 11.34 -21 11 C-21.1875 8.125 -21.1875 8.125 -21 5 C-18.31625712 3.21083808 -16.95721111 2.60917406 -13.9375 1.9375 C-4.98221172 -0.08035825 -4.98221172 -0.08035825 0 0 Z " fill="#FBFCFD" transform="translate(1054,293)"/>
<path d="M0 0 C0.70125 0.2475 1.4025 0.495 2.125 0.75 C2.455 2.4 2.785 4.05 3.125 5.75 C-8.09677419 14.93145161 -8.09677419 14.93145161 -14.875 16.75 C-16.4375 15.5 -16.4375 15.5 -17.875 13.75 C-17.875 11.8125 -17.875 11.8125 -16.875 9.75 C-12.65277778 5.75 -12.65277778 5.75 -8.875 5.75 C-8.875 5.09 -8.875 4.43 -8.875 3.75 C-3.85592031 -0.33529742 -3.85592031 -0.33529742 0 0 Z " fill="#FBFCFD" transform="translate(1131.875,252.25)"/>
<path d="M0 0 C4.34693876 0.13859805 8.67097121 0.59208209 13 1 C13.77472656 1.061875 14.54945313 1.12375 15.34765625 1.1875 C17.1875 1.375 17.1875 1.375 20 2 C20.99 3.485 20.99 3.485 22 5 C21 8 21 8 19 9 C17.56365857 9.09505069 16.12307525 9.13072867 14.68359375 9.1328125 C13.41418945 9.13474609 13.41418945 9.13474609 12.11914062 9.13671875 C11.23419922 9.13285156 10.34925781 9.12898437 9.4375 9.125 C8.54869141 9.12886719 7.65988281 9.13273438 6.74414062 9.13671875 C5.89916016 9.13542969 5.05417969 9.13414062 4.18359375 9.1328125 C3.01654907 9.13112061 3.01654907 9.13112061 1.82592773 9.12939453 C0 9 0 9 -1 8 C-1.125 4.5 -1.125 4.5 -1 1 C-0.67 0.67 -0.34 0.34 0 0 Z " fill="#FBFCFD" transform="translate(418,198)"/>
<path d="M0 0 C2.3431213 0.25561323 4.67843403 0.59270772 7 1 C8.68550367 4.37100733 6.68863036 7.72014632 5.5625 11.125 C5.31951172 11.87910156 5.07652344 12.63320312 4.82617188 13.41015625 C4.22404181 15.27557879 3.61286537 17.13807683 3 19 C2.34 19 1.68 19 1 19 C0.67 19.99 0.34 20.98 0 22 C-1.65 21.67 -3.3 21.34 -5 21 C-5.51480708 14.05010448 -3.78970859 9.30765437 -1 3 C-0.67 2.01 -0.34 1.02 0 0 Z " fill="#FBFCFD" transform="translate(1262,59)"/>
<path d="M0 0 C1.35439668 2.70879335 1.06501451 5.00933268 1 8 C-6.15401684 10.03362915 -12.54414386 11.4889086 -20 11 C-21 10 -21 10 -21.375 7.625 C-21 5 -21 5 -18.890625 3.41015625 C-15.65715543 1.83274745 -12.93398599 1.29112225 -9.375 0.8125 C-7.68503906 0.57466797 -7.68503906 0.57466797 -5.9609375 0.33203125 C-3 0 -3 0 0 0 Z " fill="#FBFCFD" transform="translate(317,206)"/>
<path d="M0 0 C1.1765918 0.00773438 1.1765918 0.00773438 2.37695312 0.015625 C8.15807132 0.09557132 8.15807132 0.09557132 9.3125 1.25 C9.35313832 2.91617115 9.355221 4.58388095 9.3125 6.25 C2.26920452 8.8167541 -4.17651178 9.95884099 -11.6875 9.25 C-12.6875 8.25 -12.6875 8.25 -13 5.875 C-12.6875 3.25 -12.6875 3.25 -11.2109375 1.6015625 C-7.50032751 -0.385854 -4.13886038 -0.11046166 0 0 Z " fill="#FBFCFD" transform="translate(338.6875,202.75)"/>
<path d="M0 0 C6.35133857 0.55473717 11.62221864 1.49952099 17.4609375 4.08203125 C17.4609375 6.06203125 17.4609375 8.04203125 17.4609375 10.08203125 C13.5006118 11.10851273 10.47666484 10.98150332 6.4609375 10.26953125 C5.4503125 10.09808594 4.4396875 9.92664063 3.3984375 9.75 C0.58837118 9.11100885 -1.90160563 8.23107037 -4.5390625 7.08203125 C-4.6640625 4.70703125 -4.6640625 4.70703125 -4.5390625 2.08203125 C-2.5390625 0.08203125 -2.5390625 0.08203125 0 0 Z " fill="#FBFCFD" transform="translate(541.5390625,211.91796875)"/>
<path d="M0 0 C1.65 0.33 3.3 0.66 5 1 C5.69140625 3.25 5.69140625 3.25 6 6 C4.16566391 9.09434331 1.55902796 11.48648835 -1 14 C-1.54914063 14.54785156 -2.09828125 15.09570312 -2.6640625 15.66015625 C-6.31303515 19.01908236 -6.31303515 19.01908236 -9.25 18.9375 C-11 18 -11 18 -13 16 C-12.875 14 -12.875 14 -12 12 C-10.68352881 11.30062468 -9.34977849 10.63270867 -8 10 C-7.67 9.01 -7.34 8.02 -7 7 C-6.34 7 -5.68 7 -5 7 C-5 6.34 -5 5.68 -5 5 C-4.34 5 -3.68 5 -3 5 C-2.67 4.01 -2.34 3.02 -2 2 C-1.34 2 -0.68 2 0 2 C0 1.34 0 0.68 0 0 Z " fill="#FBFCFD" transform="translate(1174,213)"/>
<path d="M0 0 C2.56406672 0.08737713 5.12482216 0.19429119 7.6875 0.3125 C8.7693457 0.34633789 8.7693457 0.34633789 9.87304688 0.38085938 C14.31015834 0.60372799 17.41966025 1.10362379 21 4 C21.375 6.625 21.375 6.625 21 9 C19.40656017 10.59343983 17.76821209 10.20870742 15.5625 10.25 C10.00130947 10.21790078 5.20501474 8.86051591 0 7 C-1.125 2.25 -1.125 2.25 0 0 Z " fill="#FBFCFD" transform="translate(508,207)"/>
<path d="M0 0 C1 1 1 1 1 8 C-5.93 8 -12.86 8 -20 8 C-20 6.02 -20 4.04 -20 2 C-17.79248152 1.66131223 -15.58394089 1.32928311 -13.375 1 C-12.14523437 0.814375 -10.91546875 0.62875 -9.6484375 0.4375 C-6.37376816 0.04482017 -3.29215124 -0.15818144 0 0 Z " fill="#FBFCFD" transform="translate(965,309)"/>
<path d="M0 0 C6.93 0 13.86 0 21 0 C21 1.98 21 3.96 21 6 C20 7 20 7 18.06640625 7.1328125 C11.98782997 7.11384658 6.0355601 6.71913057 0 6 C0 4.02 0 2.04 0 0 Z " fill="#FBFCFD" transform="translate(915,311)"/>
<path d="M0 0 C0.66 0 1.32 0 2 0 C2 7.59 2 15.18 2 23 C0.02 23 -1.96 23 -4 23 C-5.0625 21.125 -5.0625 21.125 -6 19 C-5.67 18.34 -5.34 17.68 -5 17 C-4.5158385 14.02020603 -4.10402375 11.03399196 -3.6953125 8.04296875 C-2.95908402 4.82093513 -1.95374902 2.65572417 0 0 Z " fill="#FBFCFD" transform="translate(1278,0)"/>
<path d="M0 0 C1.98 0.66 3.96 1.32 6 2 C4.87204037 6.10899581 3.66489182 10.07561214 2 14 C-0.64 14 -3.28 14 -6 14 C-6.36539443 9.71422781 -5.48423598 7.65507938 -3 4.1875 C-2.1646875 3.00220703 -2.1646875 3.00220703 -1.3125 1.79296875 C-0.879375 1.20128906 -0.44625 0.60960937 0 0 Z " fill="#FBFCFD" transform="translate(8,433)"/>
</svg>
